<svg id="Layer_1" data-name="Layer 1" xmlns="http://www.w3.org/2000/svg" xmlns:xlink="http://www.w3.org/1999/xlink" viewBox="0 0 878.52 940.68"><defs><style>.cls-1{fill:#ececec;}.cls-2{fill:url(#linear-gradient);}.cls-3{fill:#fafafa;}.cls-4{fill:#004c80;}.cls-5{opacity:0.3;}.cls-6{fill:#1a2e35;}.cls-7{opacity:0.5;}.cls-8{fill:#1c1c1c;}.cls-9{fill:#2b2b2b;}.cls-10{font-size:26px;}.cls-10,.cls-21{fill:#fff;font-family:Poppins-Medium, Poppins;font-weight:500;}.cls-11,.cls-13,.cls-15{fill:#aaa;}.cls-12,.cls-14,.cls-16{fill:#1c7ed6;}.cls-13,.cls-16{letter-spacing:0em;}.cls-14,.cls-15{letter-spacing:0em;}.cls-17{fill:url(#linear-gradient-2);}.cls-18{fill:#164e70;}.cls-19{fill:url(#linear-gradient-3);}.cls-20{fill:#505151;}.cls-21{font-size:31px;}</style><linearGradient id="linear-gradient" x1="69.27" y1="479.5" x2="887.73" y2="479.5" gradientUnits="userSpaceOnUse"><stop offset="0" stop-color="#1c7ed6"/><stop offset="0.26" stop-color="#1d87d5"/><stop offset="0.68" stop-color="#20a1d2"/><stop offset="0.99" stop-color="#22b8cf"/></linearGradient><linearGradient id="linear-gradient-2" x1="189.78" y1="489.44" x2="627.78" y2="489.44" xlink:href="#linear-gradient"/><linearGradient id="linear-gradient-3" x1="189.78" y1="617.44" x2="613.78" y2="617.44" xlink:href="#linear-gradient"/></defs><path class="cls-1" d="M378,215c-25.75-58.25-55-126.57-25-167,47.7-64.34,223.21-28.28,336,49,32.7,22.41,142.21,97.44,163,239,10.19,69.41,6.42,204.91-64,238C681.41,624.09,467.79,418.1,378,215Z" transform="translate(-9.22 22.44)"/><path class="cls-1" d="M212,516c-37.18,21.61-106.66,62-115,127C81.69,762.34,277.54,925.3,471,918c208.09-7.86,392.38-211.92,362-327C796.44,452.5,434.18,386.85,212,516Z" transform="translate(-9.22 22.44)"/><path class="cls-2" d="M869.21,611.3,397.29,883.77a37,37,0,0,1-50.59-13.56L74.23,398.29A37,37,0,0,1,87.79,347.7L559.71,75.23A37,37,0,0,1,610.3,88.79L882.77,560.71A37,37,0,0,1,869.21,611.3Z" transform="translate(-9.22 22.44)"/><path class="cls-1" d="M740.14,634.38c-.74-7-4-13.19-7.1-19.18q-14.06-26.76-28.1-53.51c-13.57-25.83-27.46-52.12-47.2-71.88-15.94-16-35.07-27-51.7-42s-31.34-35.75-32.59-60.13c-.58-11.22,1.74-22.42,1.4-33.65-.8-26.53-16-49.16-30.46-69.72l-18.27-25.95C517.43,246,507.73,233,494.33,229.49c-12.19-3.15-24.66,2.43-36.22,7.89-17,8-34.44,16.41-47.71,31.13-6,6.68-11,14.49-15.72,22.45a447.42,447.42,0,0,0-43.55,99.94c-2.92,9.77-5.56,20.05-4.39,30.29.6,5.2,2.12,10.75.11,15.45-1.19,2.75-3.41,4.68-5.52,6.55-21.67,19.23-39.63,43.42-57.42,67.42l-20.22,27.28c-14.27,19.26-28.59,38.59-40.55,59.87-8.07,14.37-15.12,29.88-17.9,46.72S227.44,667,236,681L365,903,716,701c8.73-3.66-.12-9.54,7.36-16.26,8.22-7.38,11.64-19.72,14.47-31.32C739.34,647.21,740.83,640.79,740.14,634.38Z" transform="translate(-9.22 22.44)"/><path class="cls-1" d="M242.22,497.27c4.35-4.16,7.41-11,7.41-11,3.35-8.86,3.27-17.31-3-25.28a28.75,28.75,0,0,0-6.31-5.86h0L240,455c-.6-.4-1.2-.8-1.82-1.15v0a27.44,27.44,0,0,0-7.9-3.08c-9.68-2.06-16.82,1.86-22.7,9.14,0,0-4.28,6-5.72,12-.42,1.73-.46,3.8-.82,4-.54.34-2.09.06-4.2,4.39-1.63,3.34,3.25,7.68,5.56,9.49a1.63,1.63,0,0,1,.43,2.08l-3.47,6.13a1.65,1.65,0,0,0,.58,2.19l.73.46a1.49,1.49,0,0,0,2.09-.47l.86-1.4a1.5,1.5,0,0,1,2.09-.47,1.65,1.65,0,0,1,.59,2.19l-1.12,2a1.65,1.65,0,0,0,.58,2.19l.72.45a1.49,1.49,0,0,0,2.12-.51l1.05-1.85a1.49,1.49,0,0,1,2.11-.51l.21.13h0a1.66,1.66,0,0,1,.57,2.2l-1.07,1.84a1.67,1.67,0,0,0,.57,2.2l.72.45a1.5,1.5,0,0,0,2.12-.49l1.14-2a1.49,1.49,0,0,1,2.12-.49,1.65,1.65,0,0,1,.59,2.15l-.78,1.45a1.66,1.66,0,0,0,.6,2.15l.72.47a1.49,1.49,0,0,0,2.12-.5l3.53-6.1a1.46,1.46,0,0,1,1.95-.58c2.61,1.28,8.56,3.74,10.61.66,2.64-4,1.67-5.29,1.71-6C239.24,499.48,241,498.47,242.22,497.27Z" transform="translate(-9.22 22.44)"/><path class="cls-3" d="M221,479.07a7,7,0,0,1-9.76,2.83A7.72,7.72,0,0,1,208,471.81a7,7,0,0,1,9.75-2.83A7.72,7.72,0,0,1,221,479.07Z" transform="translate(-9.22 22.44)"/><path class="cls-3" d="M241.49,490.56a7,7,0,0,1-9.76,2.82,7.7,7.7,0,0,1-3.21-10.08,7,7,0,0,1,9.75-2.83A7.73,7.73,0,0,1,241.49,490.56Z" transform="translate(-9.22 22.44)"/><path class="cls-3" d="M222,485.74c-.21-.06-6.09,1.75-7.83,5.38a3.29,3.29,0,0,0,1.52,4.38,1.15,1.15,0,0,0,1.51-.28,2,2,0,0,0,2.68,1.81C224.12,496.19,222,485.74,222,485.74Z" transform="translate(-9.22 22.44)"/><path class="cls-1" d="M282,161.2c.23-7.49-3-16.2-3-16.2-4.78-10.79-12.22-18.23-24.77-19.81a36,36,0,0,0-10.72.32h0c-.14,0-.28.07-.42.09-.88.17-1.75.34-2.61.57v0a34.14,34.14,0,0,0-9.7,4.17c-10.39,6.63-13.31,16.35-12.17,27.94,0,0,1.47,9.09,5.41,15.66,1.14,1.91,2.92,3.78,2.8,4.3-.17.78-1.8,1.88.11,7.57,1.47,4.39,9.6,4,13.22,3.57a2,2,0,0,1,2.21,1.46l2.27,8.49a2.05,2.05,0,0,0,2.43,1.43l1-.24a1.85,1.85,0,0,0,1.45-2.23l-.47-2a1.87,1.87,0,0,1,1.45-2.24A2,2,0,0,1,253,195.5l.74,2.74a2,2,0,0,0,2.43,1.43l1-.23a1.87,1.87,0,0,0,1.44-2.3l-.69-2.56a1.86,1.86,0,0,1,1.43-2.3l.31-.07h0a2.06,2.06,0,0,1,2.42,1.45l.67,2.57a2.06,2.06,0,0,0,2.42,1.45l1-.22a1.87,1.87,0,0,0,1.45-2.29l-.71-2.74a1.86,1.86,0,0,1,1.45-2.29,2.06,2.06,0,0,1,2.41,1.39l.58,2a2.06,2.06,0,0,0,2.41,1.39l1-.23a1.85,1.85,0,0,0,1.45-2.28l-2.21-8.5a1.84,1.84,0,0,1,1.24-2.22c3.43-1.14,10.86-4.15,10-8.68-1.14-5.85-3.14-6.16-3.69-6.78C281.26,165.77,281.91,163.37,282,161.2Z" transform="translate(-9.22 22.44)"/><path class="cls-3" d="M247.21,163.61a8.69,8.69,0,0,1-6.19,11,9.61,9.61,0,0,1-11.66-6.15,8.69,8.69,0,0,1,6.19-11A9.6,9.6,0,0,1,247.21,163.61Z" transform="translate(-9.22 22.44)"/><ellipse class="cls-3" cx="266.54" cy="158.33" rx="8.91" ry="9.36" transform="translate(46.01 407.61) rotate(-77.74)"/><path class="cls-3" d="M254,168.59c-.24.13-3.88,6.88-2.25,11.62a4.1,4.1,0,0,0,5.17,2.56,1.43,1.43,0,0,0,1.1-1.57s2.12,2,4-.73C265,176.05,254,168.59,254,168.59Z" transform="translate(-9.22 22.44)"/><path class="cls-1" d="M245.49,533.27h-.07l-.41.11Z" transform="translate(-9.22 22.44)"/><path class="cls-1" d="M303.91,444c-1.75-21.27-16.48-42.56-37.52-46.08C254.77,396,241,401.1,237.32,412.3c-4.5,13.82,7.77,30,.86,42.77-5.4,10-19,11.43-28.15,18.19-12.91,9.58-14.44,30.11-5.16,43.24s24.65,18.94,40.55,16.78c15.29-3.64,32.69-15.44,40.7-28.88C297.05,486.07,305.67,465.26,303.91,444Z" transform="translate(-9.22 22.44)"/><path class="cls-1" d="M614.21,183.78c-5.39-11-17.6-17.14-29.65-19.21-23.41-4-40.22-2.68-55.2,15.75h0c-5.79,6.45-9,16.09-11.35,24.28-2.66,9.4-1.15,20.28,5.33,27.59s18.21,10,26.53,4.86c9.14-5.61,12.49-18.52,22.43-22.55,9.69-3.93,21,2.54,31-.4C615.07,210.66,619.6,194.76,614.21,183.78Z" transform="translate(-9.22 22.44)"/><rect class="cls-1" x="543.78" y="426.44" width="203" height="135" rx="14.72"/><circle class="cls-1" cx="708.34" cy="351.06" r="24.63" transform="translate(-90.68 408.11) rotate(-28.87)"/><path class="cls-4" d="M641,256.6a28.23,28.23,0,0,0-47.45,30.61l25.06,38.86,7.14-4.6L600.67,282.6a19.75,19.75,0,0,1,5.89-27.28h0a19.75,19.75,0,0,1,27.28,5.89l5.52,8.63,7.56-4Z" transform="translate(-9.22 22.44)"/><path class="cls-4" d="M641,256.6a28.23,28.23,0,0,0-47.45,30.61l25.06,38.86,7.14-4.6L600.67,282.6a19.75,19.75,0,0,1,5.89-27.28h0a19.75,19.75,0,0,1,27.28,5.89l5.52,8.63,7.56-4Z" transform="translate(-9.22 22.44)"/><path class="cls-5" d="M641,256.6a28.23,28.23,0,0,0-47.45,30.61l25.06,38.86,7.14-4.6L600.67,282.6a19.75,19.75,0,0,1,5.89-27.28h0a19.75,19.75,0,0,1,27.28,5.89l5.52,8.63,7.56-4Z" transform="translate(-9.22 22.44)"/><rect class="cls-4" x="606.35" y="289.59" width="76.1" height="48.83" rx="8.49" transform="translate(-76.55 421.8) rotate(-32.82)"/><path class="cls-6" d="M682.47,318.49a12.33,12.33,0,0,0,1.74-1.61,8.51,8.51,0,0,0,2-6.28,9,9,0,0,0-.54-2.24,12.87,12.87,0,0,0-1.25-2.23l-3.22-4.94-7.84-12-4.54-7a18.87,18.87,0,0,0-2.58-3.52,8.34,8.34,0,0,0-3.89-2,8.22,8.22,0,0,0-4.52.34,25.83,25.83,0,0,0-4.17,2.46L645,285l-38.46,24.84a8.19,8.19,0,0,0-3.39,4.54,8,8,0,0,0,.37,5.57,19.63,19.63,0,0,0,1.48,2.49c.53.82,1.06,1.65,1.59,2.46l3.14,4.88,12,18.53a8.12,8.12,0,0,0,8.79,2.93,17.22,17.22,0,0,0,4.22-2.3l4-2.58,14.65-9.4,21.25-13.56,5.8-3.65,1.52-.94a4.82,4.82,0,0,1,.53-.3,2.58,2.58,0,0,1-.49.37l-1.47,1-5.72,3.78-21.12,13.76-14.61,9.48-4,2.59-2,1.33a9.7,9.7,0,0,1-2.33,1.08,8.83,8.83,0,0,1-9.54-3.16c-3.91-5.92-7.86-12.12-12-18.55q-1.56-2.42-3.14-4.87l-1.59-2.46a20.35,20.35,0,0,1-1.54-2.59,8.78,8.78,0,0,1-.41-6.1,9,9,0,0,1,3.7-5l38.5-24.79,8.65-5.56,2.08-1.34a10.49,10.49,0,0,1,2.23-1.16,8.78,8.78,0,0,1,9,1.86,18.63,18.63,0,0,1,2.65,3.64l4.51,7,7.73,12.1,3.17,5a13.42,13.42,0,0,1,1.26,2.31,9.25,9.25,0,0,1,.52,2.33,8.57,8.57,0,0,1-2.14,6.41A6.67,6.67,0,0,1,682.47,318.49Z" transform="translate(-9.22 22.44)"/><g class="cls-7"><path d="M646.3,305.21a6.36,6.36,0,1,0-3.51,9.5l5.16,8,2.92-1.89-5.16-8A6.34,6.34,0,0,0,646.3,305.21Z" transform="translate(-9.22 22.44)"/></g><path class="cls-3" d="M626.55,349.05c-.14.09-4.68-6.67-10.12-15.11s-9.74-15.36-9.59-15.46,4.68,6.67,10.12,15.11S626.7,349,626.55,349.05Z" transform="translate(-9.22 22.44)"/><path class="cls-3" d="M641.18,318.21a2.19,2.19,0,0,1-.85,0,7.62,7.62,0,0,1-2.29-.51,8.92,8.92,0,0,1-4.58-13,7.75,7.75,0,0,1,1.45-1.84c.41-.37.67-.53.69-.5a21.23,21.23,0,0,0-1.75,2.55,8.81,8.81,0,0,0,4.37,12.34A22.58,22.58,0,0,0,641.18,318.21Z" transform="translate(-9.22 22.44)"/><path class="cls-6" d="M654.27,253.73c-.2,0,.1-4.93.66-11s1.17-10.94,1.37-10.92-.11,4.94-.67,11S654.46,253.75,654.27,253.73Z" transform="translate(-9.22 22.44)"/><path class="cls-6" d="M689,229.3c.14.14-6.49,7.49-14.8,16.43S659,261.81,658.86,261.67s6.48-7.48,14.8-16.42S688.83,229.17,689,229.3Z" transform="translate(-9.22 22.44)"/><path class="cls-6" d="M695.61,265.27c0,.2-5.44,0-12.12-.53s-12.08-1.05-12.06-1.24,5.44.05,12.11.54S695.62,265.08,695.61,265.27Z" transform="translate(-9.22 22.44)"/><path class="cls-1" d="M68.49,481.52c4.55-5.95,7-14.9,7-14.9,2.42-11.55.7-21.93-8.57-30.54a36.13,36.13,0,0,0-8.9-6h0l-.39-.17c-.81-.37-1.62-.75-2.45-1.06v0a34,34,0,0,0-10.32-2.27c-12.3-.67-20.34,5.52-26.18,15.6,0,0-4.1,8.25-4.73,15.89-.18,2.21.17,4.76-.23,5.12-.59.53-2.56.48-4.32,6.21C8,473.86,14.87,478.26,18.06,480a2,2,0,0,1,.93,2.47l-3.1,8.22A2.06,2.06,0,0,0,17,493.31l1,.42a1.87,1.87,0,0,0,2.49-1l.78-1.89a1.86,1.86,0,0,1,2.48-1,2.07,2.07,0,0,1,1.15,2.58l-1,2.66a2.07,2.07,0,0,0,1.15,2.58l1,.41a1.85,1.85,0,0,0,2.5-1l.94-2.48a1.86,1.86,0,0,1,2.5-1l.29.12h0a2,2,0,0,1,1.12,2.59l-.95,2.47a2,2,0,0,0,1.12,2.59l1,.42a1.85,1.85,0,0,0,2.51-1l1-2.64a1.85,1.85,0,0,1,2.51-1,2.05,2.05,0,0,1,1.15,2.53l-.68,1.94a2.06,2.06,0,0,0,1.14,2.53l1,.43a1.86,1.86,0,0,0,2.51-1l3.17-8.19a1.83,1.83,0,0,1,2.29-1.09c3.46,1.08,11.25,3,13.18-1.22,2.49-5.42,1-6.84,1-7.66C65.24,484.82,67.17,483.25,68.49,481.52Z" transform="translate(-9.22 22.44)"/><path class="cls-3" d="M38.84,463.21a8.69,8.69,0,0,1-11.46,5.35,9.6,9.6,0,0,1-5.89-11.79A8.69,8.69,0,0,1,33,451.42,9.6,9.6,0,0,1,38.84,463.21Z" transform="translate(-9.22 22.44)"/><ellipse class="cls-3" cx="57.62" cy="470.19" rx="8.91" ry="9.36" transform="translate(-309.44 182.23) rotate(-42.07)"/><path class="cls-3" d="M41.44,471.21c-.28,0-7.16,3.33-8.6,8.13a4.09,4.09,0,0,0,2.71,5.09,1.42,1.42,0,0,0,1.8-.63s.57,2.83,3.64,1.71C46,483.67,41.44,471.21,41.44,471.21Z" transform="translate(-9.22 22.44)"/><path class="cls-1" d="M829,110.11c7.27-8.7,11.58-22.07,11.58-22.07,4.41-17.31,2.51-33.11-11-46.73a54.52,54.52,0,0,0-13-9.64h0l-.59-.28c-1.19-.62-2.4-1.24-3.63-1.78l0,0a51.83,51.83,0,0,0-15.45-4.11c-18.55-1.82-31.11,7-40.6,21.87,0,0-6.74,12.19-8.2,23.7-.42,3.33-.05,7.22-.68,7.72-.93.77-3.9.56-6.95,9.12-2.35,6.6,7.7,13.7,12.4,16.6a3.09,3.09,0,0,1,1.25,3.8l-5.23,12.22a3.12,3.12,0,0,0,1.56,4l1.47.7a2.81,2.81,0,0,0,3.81-1.31l1.31-2.81a2.82,2.82,0,0,1,3.82-1.31,3.12,3.12,0,0,1,1.56,4l-1.69,4a3.1,3.1,0,0,0,1.56,4l1.44.69a2.81,2.81,0,0,0,3.85-1.39l1.58-3.69a2.82,2.82,0,0,1,3.86-1.4l.42.21v0h0a3.12,3.12,0,0,1,1.53,4l-1.61,3.68a3.11,3.11,0,0,0,1.53,4l1.43.7a2.83,2.83,0,0,0,3.87-1.36l1.72-3.93a2.81,2.81,0,0,1,3.86-1.37,3.13,3.13,0,0,1,1.57,3.91l-1.16,2.88a3.13,3.13,0,0,0,1.57,3.91l1.46.71a2.8,2.8,0,0,0,3.86-1.36l5.32-12.18a2.79,2.79,0,0,1,3.55-1.49c5.15,1.85,16.81,5.22,20-1,4.12-8,2-10.27,2-11.52C823.87,114.88,826.89,112.63,829,110.11Z" transform="translate(-9.22 22.44)"/><path class="cls-3" d="M785.38,80.48a13.14,13.14,0,0,1-17.67,7.33,14.53,14.53,0,0,1-8.13-18.22,13.15,13.15,0,0,1,17.67-7.33A14.53,14.53,0,0,1,785.38,80.48Z" transform="translate(-9.22 22.44)"/><ellipse class="cls-3" cx="813.31" cy="92.26" rx="13.48" ry="14.16" transform="translate(118.5 561.85) rotate(-39.58)"/><path class="cls-3" d="M788.79,92.74c-.42-.07-11,4.56-13.54,11.72a6.2,6.2,0,0,0,3.76,7.88,2.16,2.16,0,0,0,2.77-.83s.68,4.32,5.39,2.81C794.86,111.87,788.79,92.74,788.79,92.74Z" transform="translate(-9.22 22.44)"/><rect class="cls-8" x="170.78" y="181.44" width="586" height="551" rx="16.5"/><rect class="cls-9" x="189.78" y="270.44" width="412" height="48" rx="7.72"/><text class="cls-10" transform="translate(206.23 303.44)">kassq <tspan class="cls-11" x="84.19" y="0">failed </tspan><tspan class="cls-12" x="164.6" y="0">Reach (A)</tspan><tspan x="297.64" y="0"> </tspan><tspan class="cls-11" x="304.4" y="0">[x</tspan><tspan class="cls-12" x="329.99" y="0">30</tspan><tspan class="cls-11" x="362.1" y="0">]</tspan></text><rect class="cls-9" x="189.78" y="337.44" width="403" height="48" rx="7.72"/><text class="cls-10" transform="translate(206.23 370.44)">LIWK <tspan class="cls-11" x="67.6" y="0">failed </tspan><tspan class="cls-12" x="148.02" y="0">Killaura (B)</tspan><tspan x="295.9" y="0"> </tspan><tspan class="cls-13" x="302.66" y="0">[x</tspan><tspan class="cls-14" x="328.24" y="0">69</tspan><tspan class="cls-15" x="361.45" y="0">]</tspan></text><rect class="cls-9" x="189.78" y="401.44" width="354" height="48" rx="7.72"/><text class="cls-10" transform="translate(206.23 434.44)">LIWK <tspan class="cls-11" x="67.6" y="0">failed </tspan><tspan class="cls-12" x="148.02" y="0">Fly (A)</tspan><tspan x="233.87" y="0"> </tspan><tspan class="cls-11" x="240.63" y="0">[x</tspan><tspan class="cls-16" x="266.21" y="0">420</tspan><tspan class="cls-11" x="314.7" y="0">]</tspan></text><rect class="cls-17" x="189.78" y="465.44" width="438" height="48" rx="7.72"/><text class="cls-10" transform="translate(206.23 498.44)">kassq was banned by<tspan class="cls-11" x="286.1" y="0"> </tspan><tspan class="cls-18" x="292.86" y="0">KarhuAC</tspan></text><rect class="cls-19" x="189.78" y="593.44" width="424" height="48" rx="7.72"/><text class="cls-10" transform="translate(206.23 626.44)">LIWK was banned by<tspan class="cls-11" x="269.51" y="0"> </tspan><tspan class="cls-18" x="276.27" y="0">KarhuAC</tspan></text><rect class="cls-9" x="189.78" y="529.44" width="438" height="48" rx="7.72"/><text class="cls-10" transform="translate(206.23 562.44)">Notch <tspan class="cls-11" x="84.24" y="0">joined using </tspan><tspan class="cls-12" x="250.74" y="0">Lunar client</tspan></text><rect class="cls-9" x="189.78" y="657.44" width="442" height="48" rx="7.72"/><text class="cls-10" transform="translate(206.23 690.44)">Notch <tspan class="cls-11" x="84.24" y="0">failed </tspan><tspan class="cls-14" x="164.66" y="0">Autoclicker (A)</tspan><tspan x="361.73" y="0"> </tspan><tspan class="cls-11" x="368.49" y="0">[x</tspan><tspan class="cls-12" x="394.07" y="0">1</tspan><tspan class="cls-11" x="403.17" y="0">]</tspan></text><path class="cls-20" d="M184.78,175.44h558a14,14,0,0,1,14,14v58a0,0,0,0,1,0,0h-586a0,0,0,0,1,0,0v-58A14,14,0,0,1,184.78,175.44Z"/><text class="cls-21" transform="translate(303.11 224.11)">/KARHU RECENTLOGS</text><text x="-9.22" y="22.44"/></svg>