<svg id="Layer_1" data-name="Layer 1" xmlns="http://www.w3.org/2000/svg" xmlns:xlink="http://www.w3.org/1999/xlink" viewBox="0 0 878.52 940.68"><defs><style>.cls-1{fill:#ececec;}.cls-2{fill:url(#linear-gradient);}.cls-3{fill:#fafafa;}.cls-4{fill:#004c80;}.cls-5{opacity:0.3;}.cls-6{fill:#1a2e35;}.cls-7{opacity:0.5;}.cls-8{fill:#1c1c1c;}.cls-9{fill:#2b2b2b;}.cls-10{fill:#fff;}.cls-11{fill:#aaa;}.cls-12{fill:#1c7ed6;}.cls-13{fill:url(#linear-gradient-2);}.cls-14{fill:#164e70;}.cls-15{fill:url(#linear-gradient-3);}.cls-16{fill:#505151;}</style><linearGradient id="linear-gradient" x1="69.27" y1="479.5" x2="887.73" y2="479.5" gradientUnits="userSpaceOnUse"><stop offset="0" stop-color="#1c7ed6"/><stop offset="0.26" stop-color="#1d87d5"/><stop offset="0.68" stop-color="#20a1d2"/><stop offset="0.99" stop-color="#22b8cf"/></linearGradient><linearGradient id="linear-gradient-2" x1="189.78" y1="489.44" x2="627.78" y2="489.44" xlink:href="#linear-gradient"/><linearGradient id="linear-gradient-3" x1="189.78" y1="617.44" x2="613.78" y2="617.44" xlink:href="#linear-gradient"/></defs><path class="cls-1" d="M378,215c-25.75-58.25-55-126.57-25-167,47.7-64.34,223.21-28.28,336,49,32.7,22.41,142.21,97.44,163,239,10.19,69.41,6.42,204.91-64,238C681.41,624.09,467.79,418.1,378,215Z" transform="translate(-9.22 22.44)"/><path class="cls-1" d="M212,516c-37.18,21.61-106.66,62-115,127C81.69,762.34,277.54,925.3,471,918c208.09-7.86,392.38-211.92,362-327C796.44,452.5,434.18,386.85,212,516Z" transform="translate(-9.22 22.44)"/><path class="cls-2" d="M869.21,611.3,397.29,883.77a37,37,0,0,1-50.59-13.56L74.23,398.29A37,37,0,0,1,87.79,347.7L559.71,75.23A37,37,0,0,1,610.3,88.79L882.77,560.71A37,37,0,0,1,869.21,611.3Z" transform="translate(-9.22 22.44)"/><path class="cls-1" d="M740.14,634.38c-.74-7-4-13.19-7.1-19.18q-14.06-26.76-28.1-53.51c-13.57-25.83-27.46-52.12-47.2-71.88-15.94-16-35.07-27-51.7-42s-31.34-35.75-32.59-60.13c-.58-11.22,1.74-22.42,1.4-33.65-.8-26.53-16-49.16-30.46-69.72l-18.27-25.95C517.43,246,507.73,233,494.33,229.49c-12.19-3.15-24.66,2.43-36.22,7.89-17,8-34.44,16.41-47.71,31.13-6,6.68-11,14.49-15.72,22.45a447.42,447.42,0,0,0-43.55,99.94c-2.92,9.77-5.56,20.05-4.39,30.29.6,5.2,2.12,10.75.11,15.45-1.19,2.75-3.41,4.68-5.52,6.55-21.67,19.23-39.63,43.42-57.42,67.42l-20.22,27.28c-14.27,19.26-28.59,38.59-40.55,59.87-8.07,14.37-15.12,29.88-17.9,46.72S227.44,667,236,681L365,903,716,701c8.73-3.66-.12-9.54,7.36-16.26,8.22-7.38,11.64-19.72,14.47-31.32C739.34,647.21,740.83,640.79,740.14,634.38Z" transform="translate(-9.22 22.44)"/><path class="cls-1" d="M242.22,497.27c4.35-4.16,7.41-11,7.41-11,3.35-8.86,3.27-17.31-3-25.28a28.75,28.75,0,0,0-6.31-5.86h0L240,455c-.6-.4-1.2-.8-1.82-1.15v0a27.44,27.44,0,0,0-7.9-3.08c-9.68-2.06-16.82,1.86-22.7,9.14,0,0-4.28,6-5.72,12-.42,1.73-.46,3.8-.82,4-.54.34-2.09.06-4.2,4.39-1.63,3.34,3.25,7.68,5.56,9.49a1.63,1.63,0,0,1,.43,2.08l-3.47,6.13a1.65,1.65,0,0,0,.58,2.19l.73.46a1.49,1.49,0,0,0,2.09-.47l.86-1.4a1.5,1.5,0,0,1,2.09-.47,1.65,1.65,0,0,1,.59,2.19l-1.12,2a1.65,1.65,0,0,0,.58,2.19l.72.45a1.49,1.49,0,0,0,2.12-.51l1.05-1.85a1.49,1.49,0,0,1,2.11-.51l.21.13h0a1.66,1.66,0,0,1,.57,2.2l-1.07,1.84a1.67,1.67,0,0,0,.57,2.2l.72.45a1.5,1.5,0,0,0,2.12-.49l1.14-2a1.49,1.49,0,0,1,2.12-.49,1.65,1.65,0,0,1,.59,2.15l-.78,1.45a1.66,1.66,0,0,0,.6,2.15l.72.47a1.49,1.49,0,0,0,2.12-.5l3.53-6.1a1.46,1.46,0,0,1,1.95-.58c2.61,1.28,8.56,3.74,10.61.66,2.64-4,1.67-5.29,1.71-6C239.24,499.48,241,498.47,242.22,497.27Z" transform="translate(-9.22 22.44)"/><path class="cls-3" d="M221,479.07a7,7,0,0,1-9.76,2.83A7.72,7.72,0,0,1,208,471.81a7,7,0,0,1,9.75-2.83A7.72,7.72,0,0,1,221,479.07Z" transform="translate(-9.22 22.44)"/><path class="cls-3" d="M241.49,490.56a7,7,0,0,1-9.76,2.82,7.7,7.7,0,0,1-3.21-10.08,7,7,0,0,1,9.75-2.83A7.73,7.73,0,0,1,241.49,490.56Z" transform="translate(-9.22 22.44)"/><path class="cls-3" d="M222,485.74c-.21-.06-6.09,1.75-7.83,5.38a3.29,3.29,0,0,0,1.52,4.38,1.15,1.15,0,0,0,1.51-.28,2,2,0,0,0,2.68,1.81C224.12,496.19,222,485.74,222,485.74Z" transform="translate(-9.22 22.44)"/><path class="cls-1" d="M282,161.2c.23-7.49-3-16.2-3-16.2-4.78-10.79-12.22-18.23-24.77-19.81a36,36,0,0,0-10.72.32h0c-.14,0-.28.07-.42.09-.88.17-1.75.34-2.61.57v0a34.14,34.14,0,0,0-9.7,4.17c-10.39,6.63-13.31,16.35-12.17,27.94,0,0,1.47,9.09,5.41,15.66,1.14,1.91,2.92,3.78,2.8,4.3-.17.78-1.8,1.88.11,7.57,1.47,4.39,9.6,4,13.22,3.57a2,2,0,0,1,2.21,1.46l2.27,8.49a2.05,2.05,0,0,0,2.43,1.43l1-.24a1.85,1.85,0,0,0,1.45-2.23l-.47-2a1.87,1.87,0,0,1,1.45-2.24A2,2,0,0,1,253,195.5l.74,2.74a2,2,0,0,0,2.43,1.43l1-.23a1.87,1.87,0,0,0,1.44-2.3l-.69-2.56a1.86,1.86,0,0,1,1.43-2.3l.31-.07h0a2.06,2.06,0,0,1,2.42,1.45l.67,2.57a2.06,2.06,0,0,0,2.42,1.45l1-.22a1.87,1.87,0,0,0,1.45-2.29l-.71-2.74a1.86,1.86,0,0,1,1.45-2.29,2.06,2.06,0,0,1,2.41,1.39l.58,2a2.06,2.06,0,0,0,2.41,1.39l1-.23a1.85,1.85,0,0,0,1.45-2.28l-2.21-8.5a1.84,1.84,0,0,1,1.24-2.22c3.43-1.14,10.86-4.15,10-8.68-1.14-5.85-3.14-6.16-3.69-6.78C281.26,165.77,281.91,163.37,282,161.2Z" transform="translate(-9.22 22.44)"/><path class="cls-3" d="M247.21,163.61a8.69,8.69,0,0,1-6.19,11,9.61,9.61,0,0,1-11.66-6.15,8.69,8.69,0,0,1,6.19-11A9.6,9.6,0,0,1,247.21,163.61Z" transform="translate(-9.22 22.44)"/><ellipse class="cls-3" cx="266.54" cy="158.33" rx="8.91" ry="9.36" transform="translate(46.01 407.61) rotate(-77.74)"/><path class="cls-3" d="M254,168.59c-.24.13-3.88,6.88-2.25,11.62a4.1,4.1,0,0,0,5.17,2.56,1.43,1.43,0,0,0,1.1-1.57s2.12,2,4-.73C265,176.05,254,168.59,254,168.59Z" transform="translate(-9.22 22.44)"/><path class="cls-1" d="M245.49,533.27h-.07l-.41.11Z" transform="translate(-9.22 22.44)"/><path class="cls-1" d="M303.91,444c-1.75-21.27-16.48-42.56-37.52-46.08C254.77,396,241,401.1,237.32,412.3c-4.5,13.82,7.77,30,.86,42.77-5.4,10-19,11.43-28.15,18.19-12.91,9.58-14.44,30.11-5.16,43.24s24.65,18.94,40.55,16.78c15.29-3.64,32.69-15.44,40.7-28.88C297.05,486.07,305.67,465.26,303.91,444Z" transform="translate(-9.22 22.44)"/><path class="cls-1" d="M614.21,183.78c-5.39-11-17.6-17.14-29.65-19.21-23.41-4-40.22-2.68-55.2,15.75h0c-5.79,6.45-9,16.09-11.35,24.28-2.66,9.4-1.15,20.28,5.33,27.59s18.21,10,26.53,4.86c9.14-5.61,12.49-18.52,22.43-22.55,9.69-3.93,21,2.54,31-.4C615.07,210.66,619.6,194.76,614.21,183.78Z" transform="translate(-9.22 22.44)"/><rect class="cls-1" x="543.78" y="426.44" width="203" height="135" rx="14.72"/><circle class="cls-1" cx="708.34" cy="351.06" r="24.63" transform="translate(-90.68 408.11) rotate(-28.87)"/><path class="cls-4" d="M641,256.6a28.23,28.23,0,0,0-47.45,30.61l25.06,38.86,7.14-4.6L600.67,282.6a19.75,19.75,0,0,1,5.89-27.28h0a19.75,19.75,0,0,1,27.28,5.89l5.52,8.63,7.56-4Z" transform="translate(-9.22 22.44)"/><path class="cls-4" d="M641,256.6a28.23,28.23,0,0,0-47.45,30.61l25.06,38.86,7.14-4.6L600.67,282.6a19.75,19.75,0,0,1,5.89-27.28h0a19.75,19.75,0,0,1,27.28,5.89l5.52,8.63,7.56-4Z" transform="translate(-9.22 22.44)"/><path class="cls-5" d="M641,256.6a28.23,28.23,0,0,0-47.45,30.61l25.06,38.86,7.14-4.6L600.67,282.6a19.75,19.75,0,0,1,5.89-27.28h0a19.75,19.75,0,0,1,27.28,5.89l5.52,8.63,7.56-4Z" transform="translate(-9.22 22.44)"/><rect class="cls-4" x="606.35" y="289.59" width="76.1" height="48.83" rx="8.49" transform="translate(-76.55 421.8) rotate(-32.82)"/><path class="cls-6" d="M682.47,318.49a12.33,12.33,0,0,0,1.74-1.61,8.51,8.51,0,0,0,2-6.28,9,9,0,0,0-.54-2.24,12.87,12.87,0,0,0-1.25-2.23l-3.22-4.94-7.84-12-4.54-7a18.87,18.87,0,0,0-2.58-3.52,8.34,8.34,0,0,0-3.89-2,8.22,8.22,0,0,0-4.52.34,25.83,25.83,0,0,0-4.17,2.46L645,285l-38.46,24.84a8.19,8.19,0,0,0-3.39,4.54,8,8,0,0,0,.37,5.57,19.63,19.63,0,0,0,1.48,2.49c.53.82,1.06,1.65,1.59,2.46l3.14,4.88,12,18.53a8.12,8.12,0,0,0,8.79,2.93,17.22,17.22,0,0,0,4.22-2.3l4-2.58,14.65-9.4,21.25-13.56,5.8-3.65,1.52-.94a4.82,4.82,0,0,1,.53-.3,2.58,2.58,0,0,1-.49.37l-1.47,1-5.72,3.78-21.12,13.76-14.61,9.48-4,2.59-2,1.33a9.7,9.7,0,0,1-2.33,1.08,8.83,8.83,0,0,1-9.54-3.16c-3.91-5.92-7.86-12.12-12-18.55q-1.56-2.42-3.14-4.87l-1.59-2.46a20.35,20.35,0,0,1-1.54-2.59,8.78,8.78,0,0,1-.41-6.1,9,9,0,0,1,3.7-5l38.5-24.79,8.65-5.56,2.08-1.34a10.49,10.49,0,0,1,2.23-1.16,8.78,8.78,0,0,1,9,1.86,18.63,18.63,0,0,1,2.65,3.64l4.51,7,7.73,12.1,3.17,5a13.42,13.42,0,0,1,1.26,2.31,9.25,9.25,0,0,1,.52,2.33,8.57,8.57,0,0,1-2.14,6.41A6.67,6.67,0,0,1,682.47,318.49Z" transform="translate(-9.22 22.44)"/><g class="cls-7"><path d="M646.3,305.21a6.36,6.36,0,1,0-3.51,9.5l5.16,8,2.92-1.89-5.16-8A6.34,6.34,0,0,0,646.3,305.21Z" transform="translate(-9.22 22.44)"/></g><path class="cls-3" d="M626.55,349.05c-.14.09-4.68-6.67-10.12-15.11s-9.74-15.36-9.59-15.46,4.68,6.67,10.12,15.11S626.7,349,626.55,349.05Z" transform="translate(-9.22 22.44)"/><path class="cls-3" d="M641.18,318.21a2.19,2.19,0,0,1-.85,0,7.62,7.62,0,0,1-2.29-.51,8.92,8.92,0,0,1-4.58-13,7.75,7.75,0,0,1,1.45-1.84c.41-.37.67-.53.69-.5a21.23,21.23,0,0,0-1.75,2.55,8.81,8.81,0,0,0,4.37,12.34A22.58,22.58,0,0,0,641.18,318.21Z" transform="translate(-9.22 22.44)"/><path class="cls-6" d="M654.27,253.73c-.2,0,.1-4.93.66-11s1.17-10.94,1.37-10.92-.11,4.94-.67,11S654.46,253.75,654.27,253.73Z" transform="translate(-9.22 22.44)"/><path class="cls-6" d="M689,229.3c.14.14-6.49,7.49-14.8,16.43S659,261.81,658.86,261.67s6.48-7.48,14.8-16.42S688.83,229.17,689,229.3Z" transform="translate(-9.22 22.44)"/><path class="cls-6" d="M695.61,265.27c0,.2-5.44,0-12.12-.53s-12.08-1.05-12.06-1.24,5.44.05,12.11.54S695.62,265.08,695.61,265.27Z" transform="translate(-9.22 22.44)"/><path class="cls-1" d="M68.49,481.52c4.55-5.95,7-14.9,7-14.9,2.42-11.55.7-21.93-8.57-30.54a36.13,36.13,0,0,0-8.9-6h0l-.39-.17c-.81-.37-1.62-.75-2.45-1.06v0a34,34,0,0,0-10.32-2.27c-12.3-.67-20.34,5.52-26.18,15.6,0,0-4.1,8.25-4.73,15.89-.18,2.21.17,4.76-.23,5.12-.59.53-2.56.48-4.32,6.21C8,473.86,14.87,478.26,18.06,480a2,2,0,0,1,.93,2.47l-3.1,8.22A2.06,2.06,0,0,0,17,493.31l1,.42a1.87,1.87,0,0,0,2.49-1l.78-1.89a1.86,1.86,0,0,1,2.48-1,2.07,2.07,0,0,1,1.15,2.58l-1,2.66a2.07,2.07,0,0,0,1.15,2.58l1,.41a1.85,1.85,0,0,0,2.5-1l.94-2.48a1.86,1.86,0,0,1,2.5-1l.29.12h0a2,2,0,0,1,1.12,2.59l-.95,2.47a2,2,0,0,0,1.12,2.59l1,.42a1.85,1.85,0,0,0,2.51-1l1-2.64a1.85,1.85,0,0,1,2.51-1,2.05,2.05,0,0,1,1.15,2.53l-.68,1.94a2.06,2.06,0,0,0,1.14,2.53l1,.43a1.86,1.86,0,0,0,2.51-1l3.17-8.19a1.83,1.83,0,0,1,2.29-1.09c3.46,1.08,11.25,3,13.18-1.22,2.49-5.42,1-6.84,1-7.66C65.24,484.82,67.17,483.25,68.49,481.52Z" transform="translate(-9.22 22.44)"/><path class="cls-3" d="M38.84,463.21a8.69,8.69,0,0,1-11.46,5.35,9.6,9.6,0,0,1-5.89-11.79A8.69,8.69,0,0,1,33,451.42,9.6,9.6,0,0,1,38.84,463.21Z" transform="translate(-9.22 22.44)"/><ellipse class="cls-3" cx="57.62" cy="470.19" rx="8.91" ry="9.36" transform="translate(-309.44 182.23) rotate(-42.07)"/><path class="cls-3" d="M41.44,471.21c-.28,0-7.16,3.33-8.6,8.13a4.09,4.09,0,0,0,2.71,5.09,1.42,1.42,0,0,0,1.8-.63s.57,2.83,3.64,1.71C46,483.67,41.44,471.21,41.44,471.21Z" transform="translate(-9.22 22.44)"/><path class="cls-1" d="M829,110.11c7.27-8.7,11.58-22.07,11.58-22.07,4.41-17.31,2.51-33.11-11-46.73a54.52,54.52,0,0,0-13-9.64h0l-.59-.28c-1.19-.62-2.4-1.24-3.63-1.78l0,0a51.83,51.83,0,0,0-15.45-4.11c-18.55-1.82-31.11,7-40.6,21.87,0,0-6.74,12.19-8.2,23.7-.42,3.33-.05,7.22-.68,7.72-.93.77-3.9.56-6.95,9.12-2.35,6.6,7.7,13.7,12.4,16.6a3.09,3.09,0,0,1,1.25,3.8l-5.23,12.22a3.12,3.12,0,0,0,1.56,4l1.47.7a2.81,2.81,0,0,0,3.81-1.31l1.31-2.81a2.82,2.82,0,0,1,3.82-1.31,3.12,3.12,0,0,1,1.56,4l-1.69,4a3.1,3.1,0,0,0,1.56,4l1.44.69a2.81,2.81,0,0,0,3.85-1.39l1.58-3.69a2.82,2.82,0,0,1,3.86-1.4l.42.21v0h0a3.12,3.12,0,0,1,1.53,4l-1.61,3.68a3.11,3.11,0,0,0,1.53,4l1.43.7a2.83,2.83,0,0,0,3.87-1.36l1.72-3.93a2.81,2.81,0,0,1,3.86-1.37,3.13,3.13,0,0,1,1.57,3.91l-1.16,2.88a3.13,3.13,0,0,0,1.57,3.91l1.46.71a2.8,2.8,0,0,0,3.86-1.36l5.32-12.18a2.79,2.79,0,0,1,3.55-1.49c5.15,1.85,16.81,5.22,20-1,4.12-8,2-10.27,2-11.52C823.87,114.88,826.89,112.63,829,110.11Z" transform="translate(-9.22 22.44)"/><path class="cls-3" d="M785.38,80.48a13.14,13.14,0,0,1-17.67,7.33,14.53,14.53,0,0,1-8.13-18.22,13.15,13.15,0,0,1,17.67-7.33A14.53,14.53,0,0,1,785.38,80.48Z" transform="translate(-9.22 22.44)"/><ellipse class="cls-3" cx="813.31" cy="92.26" rx="13.48" ry="14.16" transform="translate(118.5 561.85) rotate(-39.58)"/><path class="cls-3" d="M788.79,92.74c-.42-.07-11,4.56-13.54,11.72a6.2,6.2,0,0,0,3.76,7.88,2.16,2.16,0,0,0,2.77-.83s.68,4.32,5.39,2.81C794.86,111.87,788.79,92.74,788.79,92.74Z" transform="translate(-9.22 22.44)"/><rect class="cls-8" x="170.78" y="181.44" width="586" height="551" rx="16.5"/><rect class="cls-9" x="189.78" y="270.44" width="412" height="48" rx="7.72"/><path class="cls-10" d="M223.06,273.85l6.61,7.15h-4l-5.3-6.16V281h-3V261.76h3v11.18l5.2-6.27h4.11Z" transform="translate(-9.22 22.44)"/><path class="cls-10" d="M231.71,270a6.51,6.51,0,0,1,5.86-3.51,6.26,6.26,0,0,1,3,.66,6.17,6.17,0,0,1,2,1.65v-2.08h3V281h-3v-2.13a6,6,0,0,1-2.06,1.69,6.69,6.69,0,0,1-6.34-.27,6.66,6.66,0,0,1-2.43-2.66,8.11,8.11,0,0,1-.9-3.86A7.9,7.9,0,0,1,231.71,270Zm10.21,1.3a4.22,4.22,0,0,0-3.73-2.24,4.21,4.21,0,0,0-3.73,2.2,5.18,5.18,0,0,0-.61,2.56,5.4,5.4,0,0,0,.61,2.6,4.37,4.37,0,0,0,1.61,1.71,4.25,4.25,0,0,0,2.12.58,4.15,4.15,0,0,0,3.73-2.25,5.25,5.25,0,0,0,.62-2.59A5.17,5.17,0,0,0,241.92,271.25Z" transform="translate(-9.22 22.44)"/><path class="cls-10" d="M251.6,280.62a5.22,5.22,0,0,1-2.12-1.66,4.11,4.11,0,0,1-.83-2.35h3.06a2.16,2.16,0,0,0,.87,1.52,3.23,3.23,0,0,0,2,.61,3.35,3.35,0,0,0,1.94-.48,1.46,1.46,0,0,0,.69-1.24,1.26,1.26,0,0,0-.77-1.19A14.09,14.09,0,0,0,254,275a23.72,23.72,0,0,1-2.62-.86,4.6,4.6,0,0,1-1.76-1.27,3.39,3.39,0,0,1-.74-2.27,3.46,3.46,0,0,1,.68-2.09,4.46,4.46,0,0,1,1.93-1.49,7.14,7.14,0,0,1,2.9-.55,6,6,0,0,1,3.94,1.23,4.45,4.45,0,0,1,1.6,3.37h-3a2.16,2.16,0,0,0-.78-1.53,3,3,0,0,0-1.9-.57,3.07,3.07,0,0,0-1.8.44,1.37,1.37,0,0,0-.62,1.17,1.26,1.26,0,0,0,.42,1,2.9,2.9,0,0,0,1,.61c.4.15,1,.34,1.77.56a20.8,20.8,0,0,1,2.56.84,4.8,4.8,0,0,1,1.73,1.27,3.37,3.37,0,0,1,.75,2.21,3.7,3.7,0,0,1-.67,2.18,4.59,4.59,0,0,1-1.92,1.51,7.91,7.91,0,0,1-5.92-.07Z" transform="translate(-9.22 22.44)"/><path class="cls-10" d="M265.48,280.62a5.29,5.29,0,0,1-2.12-1.66,4.11,4.11,0,0,1-.83-2.35h3.07a2.09,2.09,0,0,0,.87,1.52,3.21,3.21,0,0,0,2,.61,3.34,3.34,0,0,0,1.93-.48,1.46,1.46,0,0,0,.69-1.24,1.25,1.25,0,0,0-.76-1.19,14.75,14.75,0,0,0-2.43-.86,24,24,0,0,1-2.63-.86,4.67,4.67,0,0,1-1.76-1.27,3.39,3.39,0,0,1-.74-2.27,3.53,3.53,0,0,1,.68-2.09,4.49,4.49,0,0,1,1.94-1.49,7.11,7.11,0,0,1,2.9-.55,6,6,0,0,1,3.93,1.23,4.45,4.45,0,0,1,1.6,3.37h-3a2.09,2.09,0,0,0-.78-1.53,2.93,2.93,0,0,0-1.9-.57,3,3,0,0,0-1.79.44,1.35,1.35,0,0,0-.63,1.17,1.26,1.26,0,0,0,.42,1,3,3,0,0,0,1,.61c.4.15,1,.34,1.77.56a20.8,20.8,0,0,1,2.56.84,4.71,4.71,0,0,1,1.73,1.27A3.32,3.32,0,0,1,274,277a3.71,3.71,0,0,1-.68,2.18,4.55,4.55,0,0,1-1.91,1.51,7.94,7.94,0,0,1-5.93-.07Z" transform="translate(-9.22 22.44)"/><path class="cls-10" d="M277.1,270a6.54,6.54,0,0,1,5.89-3.51,6.26,6.26,0,0,1,2.95.68,5.66,5.66,0,0,1,2,1.63v-2.08h3v21.14h-3v-8.89a5.57,5.57,0,0,1-2,1.64,6.54,6.54,0,0,1-3,.67,6.25,6.25,0,0,1-3.37-.94,6.86,6.86,0,0,1-2.42-2.66,8.11,8.11,0,0,1-.89-3.86A7.89,7.89,0,0,1,277.1,270Zm10.22,1.3a4.27,4.27,0,0,0-1.6-1.66,4.21,4.21,0,0,0-2.13-.58,4.21,4.21,0,0,0-3.73,2.2,5.08,5.08,0,0,0-.61,2.56,5.29,5.29,0,0,0,.61,2.6,4.3,4.3,0,0,0,1.61,1.71,4.19,4.19,0,0,0,5.85-1.67,5.25,5.25,0,0,0,.61-2.59A5.17,5.17,0,0,0,287.32,271.25Z" transform="translate(-9.22 22.44)"/><path class="cls-11" d="M307.59,269.09h-2.66V281h-3V269.09h-1.7v-2.42H302v-1a4.48,4.48,0,0,1,1.31-3.6,6.24,6.24,0,0,1,4.12-1.13v2.47a2.83,2.83,0,0,0-1.9.5,2.36,2.36,0,0,0-.55,1.76v1h2.66Z" transform="translate(-9.22 22.44)"/><path class="cls-11" d="M310.12,270a6.54,6.54,0,0,1,5.86-3.51,6.33,6.33,0,0,1,3,.66,6,6,0,0,1,2,1.65v-2.08h3V281h-3v-2.13a6,6,0,0,1-2.05,1.69,6.71,6.71,0,0,1-6.35-.27,6.8,6.8,0,0,1-2.43-2.66,8.11,8.11,0,0,1-.9-3.86A7.9,7.9,0,0,1,310.12,270Zm10.22,1.3a4.27,4.27,0,0,0-1.6-1.66,4.21,4.21,0,0,0-2.13-.58,4.21,4.21,0,0,0-3.73,2.2,5.08,5.08,0,0,0-.61,2.56,5.29,5.29,0,0,0,.61,2.6,4.3,4.3,0,0,0,1.61,1.71,4.19,4.19,0,0,0,5.85-1.67,5.25,5.25,0,0,0,.61-2.59A5.17,5.17,0,0,0,320.34,271.25Z" transform="translate(-9.22 22.44)"/><path class="cls-11" d="M328,264.23a1.9,1.9,0,0,1,1.35-3.25,1.77,1.77,0,0,1,1.32.55,1.9,1.9,0,0,1-1.32,3.25A1.84,1.84,0,0,1,328,264.23Zm2.8,2.44V281h-3V266.67Z" transform="translate(-9.22 22.44)"/><path class="cls-11" d="M337.67,261.76V281h-3V261.76Z" transform="translate(-9.22 22.44)"/><path class="cls-11" d="M354.59,274.94H343.65a4,4,0,0,0,1.27,2.76,4.05,4.05,0,0,0,2.81,1,3.47,3.47,0,0,0,3.38-2h3.2A6.47,6.47,0,0,1,352,280a6.94,6.94,0,0,1-4.23,1.26,7.26,7.26,0,0,1-3.68-.92,6.58,6.58,0,0,1-2.55-2.6,8,8,0,0,1-.92-3.89,8.08,8.08,0,0,1,.9-3.88,6.35,6.35,0,0,1,2.52-2.59,7.47,7.47,0,0,1,3.73-.91,7.26,7.26,0,0,1,3.61.88,6.25,6.25,0,0,1,2.48,2.49,7.56,7.56,0,0,1,.88,3.68A9.1,9.1,0,0,1,354.59,274.94Zm-3-2.39a3.4,3.4,0,0,0-1.17-2.63,4.24,4.24,0,0,0-2.84-1,3.78,3.78,0,0,0-2.62,1,4.08,4.08,0,0,0-1.31,2.64Z" transform="translate(-9.22 22.44)"/><path class="cls-11" d="M357.52,270a6.51,6.51,0,0,1,5.89-3.51,6.7,6.7,0,0,1,2.77.61,5.68,5.68,0,0,1,2.17,1.63v-6.92h3V281h-3v-2.16a5.53,5.53,0,0,1-2,1.72,6.23,6.23,0,0,1-2.95.67,6.45,6.45,0,0,1-3.42-.94,6.75,6.75,0,0,1-2.44-2.66,8.11,8.11,0,0,1-.9-3.86A7.9,7.9,0,0,1,357.52,270Zm10.22,1.3a4.27,4.27,0,0,0-1.6-1.66,4.23,4.23,0,0,0-5.86,1.62,5.08,5.08,0,0,0-.61,2.56,5.29,5.29,0,0,0,.61,2.6,4.2,4.2,0,0,0,7.46,0,5.25,5.25,0,0,0,.61-2.59A5.17,5.17,0,0,0,367.74,271.25Z" transform="translate(-9.22 22.44)"/><path class="cls-12" d="M391.38,281l-4.16-7.23H385V281h-3V262.93h6.24a7.7,7.7,0,0,1,3.52.73,5,5,0,0,1,2.16,1.95,5.25,5.25,0,0,1,.71,2.73,5.43,5.43,0,0,1-1,3.21,5.21,5.21,0,0,1-3.16,2l4.47,7.49ZM385,271.41h3.28a3.43,3.43,0,0,0,2.51-.84,3,3,0,0,0,.84-2.23,2.87,2.87,0,0,0-.83-2.2,3.51,3.51,0,0,0-2.52-.79H385Z" transform="translate(-9.22 22.44)"/><path class="cls-12" d="M411.46,274.94H400.51a4,4,0,0,0,1.27,2.76,4.05,4.05,0,0,0,2.81,1,3.47,3.47,0,0,0,3.38-2h3.2a6.47,6.47,0,0,1-2.35,3.23,6.94,6.94,0,0,1-4.23,1.26,7.29,7.29,0,0,1-3.68-.92,6.49,6.49,0,0,1-2.54-2.6,7.88,7.88,0,0,1-.93-3.89,8.08,8.08,0,0,1,.9-3.88,6.35,6.35,0,0,1,2.52-2.59,7.47,7.47,0,0,1,3.73-.91,7.32,7.32,0,0,1,3.62.88,6.29,6.29,0,0,1,2.47,2.49,7.45,7.45,0,0,1,.88,3.68A9.17,9.17,0,0,1,411.46,274.94Zm-3-2.39a3.4,3.4,0,0,0-1.17-2.63,4.24,4.24,0,0,0-2.84-1,3.78,3.78,0,0,0-2.62,1,4,4,0,0,0-1.3,2.64Z" transform="translate(-9.22 22.44)"/><path class="cls-12" d="M414.38,270a6.54,6.54,0,0,1,5.86-3.51,6.33,6.33,0,0,1,3,.66,6,6,0,0,1,2,1.65v-2.08h3V281h-3v-2.13a6,6,0,0,1-2,1.69,6.71,6.71,0,0,1-6.35-.27,6.8,6.8,0,0,1-2.43-2.66,8.11,8.11,0,0,1-.9-3.86A7.9,7.9,0,0,1,414.38,270Zm10.22,1.3a4.27,4.27,0,0,0-1.6-1.66,4.21,4.21,0,0,0-2.13-.58,4.26,4.26,0,0,0-2.13.56,4.21,4.21,0,0,0-1.6,1.64,5.08,5.08,0,0,0-.61,2.56,5.29,5.29,0,0,0,.61,2.6,4.2,4.2,0,0,0,7.46,0,5.25,5.25,0,0,0,.61-2.59A5.17,5.17,0,0,0,424.6,271.25Z" transform="translate(-9.22 22.44)"/><path class="cls-12" d="M432,269.94a6.39,6.39,0,0,1,2.48-2.59,8,8,0,0,1,7.95.32,6.13,6.13,0,0,1,2.3,3.53h-3.2a3.42,3.42,0,0,0-1.25-1.67,3.74,3.74,0,0,0-2.16-.59,3.61,3.61,0,0,0-2.9,1.28,5.45,5.45,0,0,0-1.08,3.6,5.51,5.51,0,0,0,1.08,3.62,3.57,3.57,0,0,0,2.9,1.3,3.3,3.3,0,0,0,3.41-2.26h3.2A6.47,6.47,0,0,1,442.4,280a6.92,6.92,0,0,1-4.27,1.28,7.06,7.06,0,0,1-3.64-.92,6.41,6.41,0,0,1-2.48-2.6,8.84,8.84,0,0,1,0-7.77Z" transform="translate(-9.22 22.44)"/><path class="cls-12" d="M458,267.14a5,5,0,0,1,2,2.08,6.88,6.88,0,0,1,.74,3.33V281h-2.93v-8a4.18,4.18,0,0,0-1-2.95,3.43,3.43,0,0,0-2.62-1,3.49,3.49,0,0,0-2.64,1,4.14,4.14,0,0,0-1,2.95v8h-3V261.76h3v6.58a5,5,0,0,1,1.92-1.41,6.34,6.34,0,0,1,2.53-.49A6,6,0,0,1,458,267.14Z" transform="translate(-9.22 22.44)"/><path class="cls-12" d="M474,279.62a24.56,24.56,0,0,1,.11-16.43,16,16,0,0,1,4.33-6.47h3.06V257a17.55,17.55,0,0,0-4.49,6.61,21.43,21.43,0,0,0-.11,15.52,18.9,18.9,0,0,0,4.08,6.42v.29h-3.06A16,16,0,0,1,474,279.62Z" transform="translate(-9.22 22.44)"/><path class="cls-12" d="M495,277.31h-7.57l-1.3,3.69h-3.09l6.47-18.1H493l6.47,18.1h-3.12Zm-.83-2.42-2.94-8.4-3,8.4Z" transform="translate(-9.22 22.44)"/><path class="cls-12" d="M501.52,285.84v-.29a18.75,18.75,0,0,0,4.08-6.42,21,21,0,0,0,1.41-7.59,21.61,21.61,0,0,0-1.51-7.93A17.69,17.69,0,0,0,501,257v-.28h3.07a16.06,16.06,0,0,1,4.33,6.47,24.48,24.48,0,0,1,.1,16.43,15.94,15.94,0,0,1-3.91,6.22Z" transform="translate(-9.22 22.44)"/><path class="cls-11" d="M529.11,256.72v2.44h-2.63v24.21h2.63v2.47H523.7V256.72Z" transform="translate(-9.22 22.44)"/><path class="cls-11" d="M540.54,273.75l4.63,7.25h-3.35l-3.1-4.86L535.81,281h-3.09l4.63-7.05-4.63-7.28h3.35l3.1,4.87,2.91-4.87h3.09Z" transform="translate(-9.22 22.44)"/><path class="cls-12" d="M548.8,263a6.79,6.79,0,0,1,4.35-1.36,7.11,7.11,0,0,1,3.15.65,4.76,4.76,0,0,1,2,1.77,4.81,4.81,0,0,1,.68,2.52,4.47,4.47,0,0,1-.86,2.76,4.19,4.19,0,0,1-2,1.53v.11a4.36,4.36,0,0,1,2.39,1.7,5.43,5.43,0,0,1,.86,3.16,5.29,5.29,0,0,1-.71,2.73,4.79,4.79,0,0,1-2.08,1.89,7.38,7.38,0,0,1-3.3.68,7.16,7.16,0,0,1-4.61-1.44,5.34,5.34,0,0,1-1.94-4.15h2.86a3.21,3.21,0,0,0,1.07,2.25,3.71,3.71,0,0,0,2.6.87,3.28,3.28,0,0,0,2.44-.87,3.08,3.08,0,0,0,.86-2.25,2.86,2.86,0,0,0-1.16-2.58,6.52,6.52,0,0,0-3.55-.77h-.67v-2.44h.7A6.41,6.41,0,0,0,555,269a2.3,2.3,0,0,0,1.1-2.13,2.57,2.57,0,0,0-.8-2,3.28,3.28,0,0,0-2.29-.74,3.24,3.24,0,0,0-2.26.74,3,3,0,0,0-1,1.84h-2.89A4.94,4.94,0,0,1,548.8,263Z" transform="translate(-9.22 22.44)"/><path class="cls-12" d="M564,264.24q1.51-2.53,5.24-2.53c2.48,0,4.22.84,5.24,2.53a13.76,13.76,0,0,1,1.52,7,14,14,0,0,1-1.52,7.11c-1,1.7-2.76,2.56-5.24,2.56s-4.23-.86-5.24-2.56a13.91,13.91,0,0,1-1.52-7.11A13.65,13.65,0,0,1,564,264.24Zm8.81,3.47a4.83,4.83,0,0,0-1.1-2.38,3.78,3.78,0,0,0-4.94,0,4.75,4.75,0,0,0-1.11,2.38,20,20,0,0,0-.27,3.57,22.05,22.05,0,0,0,.26,3.66,4.54,4.54,0,0,0,1.1,2.39,3.85,3.85,0,0,0,5,0,4.63,4.63,0,0,0,1.11-2.39,22.18,22.18,0,0,0,.25-3.66A20,20,0,0,0,572.77,267.71Z" transform="translate(-9.22 22.44)"/><path class="cls-11" d="M586.28,285.84h-5.41v-2.47h2.63V259.16h-2.63v-2.44h5.41Z" transform="translate(-9.22 22.44)"/><rect class="cls-9" x="189.78" y="337.44" width="403" height="48" rx="7.72"/><path class="cls-10" d="M220.36,345.61h6.11V348h-9.08V329.93h3Z" transform="translate(-9.22 22.44)"/><path class="cls-10" d="M231.9,329.93V348h-3V329.93Z" transform="translate(-9.22 22.44)"/><path class="cls-10" d="M259.33,329.93,254,348h-3.36l-3.79-13.68-4,13.68-3.33,0-5.12-18.1h3.14l3.75,14.72,4-14.72h3.33l3.77,14.64,3.77-14.64Z" transform="translate(-9.22 22.44)"/><path class="cls-10" d="M271.73,348l-7-8.09V348h-3V329.93h3v8.24l7-8.24h3.72L267.63,339l8,9Z" transform="translate(-9.22 22.44)"/><path class="cls-11" d="M291,336.09h-2.65V348h-3V336.09h-1.69v-2.42h1.69v-1a4.51,4.51,0,0,1,1.31-3.6,6.26,6.26,0,0,1,4.12-1.13v2.47a2.85,2.85,0,0,0-1.9.5,2.36,2.36,0,0,0-.54,1.76v1H291Z" transform="translate(-9.22 22.44)"/><path class="cls-11" d="M293.54,337a6.51,6.51,0,0,1,5.86-3.51,6.29,6.29,0,0,1,3,.66,6,6,0,0,1,2,1.65v-2.08h3V348h-3v-2.13a5.87,5.87,0,0,1-2.05,1.69,6.69,6.69,0,0,1-6.34-.27,6.66,6.66,0,0,1-2.43-2.66,8.11,8.11,0,0,1-.9-3.86A7.9,7.9,0,0,1,293.54,337Zm10.21,1.3A4.25,4.25,0,0,0,300,336a4.21,4.21,0,0,0-3.73,2.2,5.08,5.08,0,0,0-.61,2.56,5.29,5.29,0,0,0,.61,2.6,4.37,4.37,0,0,0,1.61,1.71,4.25,4.25,0,0,0,2.12.58,4.18,4.18,0,0,0,3.73-2.25,5.25,5.25,0,0,0,.61-2.59A5.17,5.17,0,0,0,303.75,338.25Z" transform="translate(-9.22 22.44)"/><path class="cls-11" d="M311.41,331.23a1.93,1.93,0,0,1,0-2.7,1.91,1.91,0,0,1,2.68,0,1.9,1.9,0,0,1-2.68,2.7Zm2.81,2.44V348h-3V333.67Z" transform="translate(-9.22 22.44)"/><path class="cls-11" d="M321.08,328.76V348h-3V328.76Z" transform="translate(-9.22 22.44)"/><path class="cls-11" d="M338,341.94H327.06a4,4,0,0,0,1.28,2.76,4,4,0,0,0,2.8,1,3.46,3.46,0,0,0,3.38-2h3.2a6.47,6.47,0,0,1-2.35,3.23,6.91,6.91,0,0,1-4.23,1.26,7.29,7.29,0,0,1-3.68-.92,6.49,6.49,0,0,1-2.54-2.6,7.88,7.88,0,0,1-.93-3.89,8.08,8.08,0,0,1,.9-3.88,6.35,6.35,0,0,1,2.52-2.59,7.5,7.5,0,0,1,3.73-.91,7.3,7.3,0,0,1,3.62.88,6.23,6.23,0,0,1,2.47,2.49,7.45,7.45,0,0,1,.88,3.68A9.17,9.17,0,0,1,338,341.94Zm-3-2.39a3.4,3.4,0,0,0-1.17-2.63,4.24,4.24,0,0,0-2.84-1,3.8,3.8,0,0,0-2.62,1,4.07,4.07,0,0,0-1.3,2.64Z" transform="translate(-9.22 22.44)"/><path class="cls-11" d="M340.93,337a6.67,6.67,0,0,1,8.66-2.9,5.68,5.68,0,0,1,2.17,1.63v-6.92h3V348h-3v-2.16a5.41,5.41,0,0,1-2,1.72,6.26,6.26,0,0,1-2.95.67,6.42,6.42,0,0,1-3.42-.94,6.78,6.78,0,0,1-2.45-2.66,8.11,8.11,0,0,1-.89-3.86A7.89,7.89,0,0,1,340.93,337Zm10.22,1.3a4.27,4.27,0,0,0-1.6-1.66,4.21,4.21,0,0,0-2.13-.58,4.21,4.21,0,0,0-3.73,2.2,5.08,5.08,0,0,0-.61,2.56,5.29,5.29,0,0,0,.61,2.6,4.3,4.3,0,0,0,1.61,1.71,4.19,4.19,0,0,0,5.85-1.67,5.25,5.25,0,0,0,.61-2.59A5.17,5.17,0,0,0,351.15,338.25Z" transform="translate(-9.22 22.44)"/><path class="cls-12" d="M375.37,348l-7-8.09V348h-3V329.93h3v8.24l7-8.24h3.71L371.26,339l8,9Z" transform="translate(-9.22 22.44)"/><path class="cls-12" d="M382,331.23a1.9,1.9,0,0,1,1.35-3.25,1.77,1.77,0,0,1,1.32.55,1.9,1.9,0,0,1-1.32,3.25A1.84,1.84,0,0,1,382,331.23Zm2.8,2.44V348h-3V333.67Z" transform="translate(-9.22 22.44)"/><path class="cls-12" d="M391.7,328.76V348h-3V328.76Z" transform="translate(-9.22 22.44)"/><path class="cls-12" d="M398.56,328.76V348h-3V328.76Z" transform="translate(-9.22 22.44)"/><path class="cls-12" d="M402.37,337a6.54,6.54,0,0,1,5.86-3.51,6.33,6.33,0,0,1,3,.66,6,6,0,0,1,2,1.65v-2.08h3V348h-3v-2.13a6,6,0,0,1-2.05,1.69,6.71,6.71,0,0,1-6.35-.27,6.8,6.8,0,0,1-2.43-2.66,8.11,8.11,0,0,1-.9-3.86A7.9,7.9,0,0,1,402.37,337Zm10.22,1.3a4.27,4.27,0,0,0-1.6-1.66,4.21,4.21,0,0,0-2.13-.58,4.21,4.21,0,0,0-3.73,2.2,5.08,5.08,0,0,0-.61,2.56,5.29,5.29,0,0,0,.61,2.6,4.3,4.3,0,0,0,1.61,1.71,4.19,4.19,0,0,0,5.85-1.67,5.25,5.25,0,0,0,.61-2.59A5.17,5.17,0,0,0,412.59,338.25Z" transform="translate(-9.22 22.44)"/><path class="cls-12" d="M433.06,333.67V348h-3v-1.69a4.84,4.84,0,0,1-1.83,1.39,5.82,5.82,0,0,1-2.41.51,6.57,6.57,0,0,1-3-.7,5.13,5.13,0,0,1-2.1-2.08,6.77,6.77,0,0,1-.77-3.33v-8.43h2.94v8a4.17,4.17,0,0,0,1,2.95,3.44,3.44,0,0,0,2.63,1,3.48,3.48,0,0,0,2.64-1,4.13,4.13,0,0,0,1-2.95v-8Z" transform="translate(-9.22 22.44)"/><path class="cls-12" d="M441.66,334.05a5.08,5.08,0,0,1,2.56-.61v3.07h-.76a3.57,3.57,0,0,0-2.63.88,4.22,4.22,0,0,0-.9,3.07V348h-3V333.67h3v2.08A4.7,4.7,0,0,1,441.66,334.05Z" transform="translate(-9.22 22.44)"/><path class="cls-12" d="M446.86,337a6.51,6.51,0,0,1,5.86-3.51,6.26,6.26,0,0,1,2.95.66,6.17,6.17,0,0,1,2,1.65v-2.08h3V348h-3v-2.13a6,6,0,0,1-2.06,1.69,6.69,6.69,0,0,1-6.34-.27,6.73,6.73,0,0,1-2.43-2.66,8.11,8.11,0,0,1-.9-3.86A7.9,7.9,0,0,1,446.86,337Zm10.22,1.3a4.34,4.34,0,0,0-1.6-1.66,4.22,4.22,0,0,0-2.14-.58,4.21,4.21,0,0,0-3.73,2.2,5.18,5.18,0,0,0-.61,2.56,5.4,5.4,0,0,0,.61,2.6,4.37,4.37,0,0,0,1.61,1.71,4.25,4.25,0,0,0,2.12.58,4.21,4.21,0,0,0,2.14-.57,4.33,4.33,0,0,0,1.6-1.68,5.36,5.36,0,0,0,.61-2.59A5.28,5.28,0,0,0,457.08,338.25Z" transform="translate(-9.22 22.44)"/><path class="cls-12" d="M474,346.62a24.56,24.56,0,0,1,.11-16.43,16,16,0,0,1,4.33-6.47h3.07V324a17.46,17.46,0,0,0-4.5,6.61,21.43,21.43,0,0,0-.11,15.52,18.78,18.78,0,0,0,4.09,6.42v.29h-3.07A16,16,0,0,1,474,346.62Z" transform="translate(-9.22 22.44)"/><path class="cls-12" d="M496.27,340.25a4.66,4.66,0,0,1,.3,5.37,4.82,4.82,0,0,1-2.07,1.74,7.22,7.22,0,0,1-3.14.64h-7.23V329.93H491a7.47,7.47,0,0,1,3.17.62,4.72,4.72,0,0,1,2,1.68,4.27,4.27,0,0,1,.68,2.35,4,4,0,0,1-.83,2.6,4.83,4.83,0,0,1-2.24,1.54A4,4,0,0,1,496.27,340.25Zm-9.18-2.73h3.67a3.51,3.51,0,0,0,2.27-.66,2.3,2.3,0,0,0,.82-1.91A2.34,2.34,0,0,0,493,333a3.4,3.4,0,0,0-2.27-.69h-3.67Zm6.37,7.33a2.51,2.51,0,0,0,.86-2,2.62,2.62,0,0,0-.91-2.11,3.59,3.59,0,0,0-2.42-.78h-3.9v5.64h4A3.51,3.51,0,0,0,493.46,344.85Z" transform="translate(-9.22 22.44)"/><path class="cls-12" d="M499.78,352.84v-.29a18.75,18.75,0,0,0,4.08-6.42,21,21,0,0,0,1.41-7.59,21.61,21.61,0,0,0-1.51-7.93,17.69,17.69,0,0,0-4.5-6.61v-.28h3.07a16.06,16.06,0,0,1,4.33,6.47,24.48,24.48,0,0,1,.1,16.43,15.94,15.94,0,0,1-3.91,6.22Z" transform="translate(-9.22 22.44)"/><path class="cls-11" d="M527.37,323.72v2.44h-2.63v24.21h2.63v2.47H522V323.72Z" transform="translate(-9.22 22.44)"/><path class="cls-11" d="M538.8,340.75l4.63,7.25h-3.35l-3.1-4.86L534.07,348H531l4.63-7.05L531,333.67h3.35l3.1,4.87,2.91-4.87h3.09Z" transform="translate(-9.22 22.44)"/><path class="cls-12" d="M554.4,331.65a3.28,3.28,0,0,0-2.1-.6,3.4,3.4,0,0,0-3.07,1.57,10.32,10.32,0,0,0-1.07,5.21,4.48,4.48,0,0,1,2-1.76,6.36,6.36,0,0,1,2.81-.63,6.13,6.13,0,0,1,3,.74,5.19,5.19,0,0,1,2,2.15,7,7,0,0,1,.74,3.35,7.23,7.23,0,0,1-.71,3.25,5.35,5.35,0,0,1-2.12,2.25,6.56,6.56,0,0,1-3.38.82,6.66,6.66,0,0,1-4.2-1.18,6.21,6.21,0,0,1-2.13-3.34,20.06,20.06,0,0,1-.61-5.39q0-9.51,6.7-9.51a5.78,5.78,0,0,1,4.1,1.4,5.54,5.54,0,0,1,1.75,3.46h-2.73A3,3,0,0,0,554.4,331.65Zm-4.79,7.24a3.39,3.39,0,0,0-1.11,2.74,3.9,3.9,0,0,0,1,2.85,3.82,3.82,0,0,0,2.87,1,3.4,3.4,0,0,0,2.59-1,3.83,3.83,0,0,0,1-2.71A4.14,4.14,0,0,0,555,339a3.45,3.45,0,0,0-2.72-1.05A3.93,3.93,0,0,0,549.61,338.89Z" transform="translate(-9.22 22.44)"/><path class="cls-12" d="M566.75,344.83a3.68,3.68,0,0,0,2.32.67,2.9,2.9,0,0,0,2.7-1.45,10.45,10.45,0,0,0,.86-5,4,4,0,0,1-1.75,1.37,6.27,6.27,0,0,1-2.46.48,6.76,6.76,0,0,1-3.07-.69,5.1,5.1,0,0,1-2.17-2.05,6.53,6.53,0,0,1-.79-3.32,5.83,5.83,0,0,1,6.29-6.27c2.36,0,4,.79,5,2.36s1.5,4,1.5,7.21a22.33,22.33,0,0,1-.56,5.49,5.89,5.89,0,0,1-1.94,3.22,6,6,0,0,1-3.82,1.09,5.91,5.91,0,0,1-4.29-1.45,5.52,5.52,0,0,1-1.69-3.67h2.73A3.19,3.19,0,0,0,566.75,344.83Zm4.65-7.37a3.72,3.72,0,0,0,.89-2.59,3.84,3.84,0,0,0-.95-2.79,3.79,3.79,0,0,0-5.17,0,3.83,3.83,0,0,0-.95,2.69,3.76,3.76,0,0,0,.92,2.61,3.57,3.57,0,0,0,2.8,1A3.18,3.18,0,0,0,571.4,337.46Z" transform="translate(-9.22 22.44)"/><path class="cls-11" d="M585.63,352.84h-5.41v-2.47h2.63V326.16h-2.63v-2.44h5.41Z" transform="translate(-9.22 22.44)"/><rect class="cls-9" x="189.78" y="401.44" width="354" height="48" rx="7.72"/><path class="cls-10" d="M220.36,409.61h6.11V412h-9.08V393.93h3Z" transform="translate(-9.22 22.44)"/><path class="cls-10" d="M231.9,393.93V412h-3V393.93Z" transform="translate(-9.22 22.44)"/><path class="cls-10" d="M259.33,393.93,254,412h-3.36l-3.79-13.68-4,13.68-3.33,0-5.12-18.1h3.14l3.75,14.72,4-14.72h3.33l3.77,14.64,3.77-14.64Z" transform="translate(-9.22 22.44)"/><path class="cls-10" d="M271.73,412l-7-8.09V412h-3V393.93h3v8.24l7-8.24h3.72L267.63,403l8,9Z" transform="translate(-9.22 22.44)"/><path class="cls-11" d="M291,400.09h-2.65V412h-3V400.09h-1.69v-2.42h1.69v-1a4.51,4.51,0,0,1,1.31-3.6,6.26,6.26,0,0,1,4.12-1.13v2.47a2.85,2.85,0,0,0-1.9.5,2.36,2.36,0,0,0-.54,1.76v1H291Z" transform="translate(-9.22 22.44)"/><path class="cls-11" d="M293.54,401a6.51,6.51,0,0,1,5.86-3.51,6.29,6.29,0,0,1,3,.66,6,6,0,0,1,2,1.65v-2.08h3V412h-3v-2.13a5.87,5.87,0,0,1-2.05,1.69,6.69,6.69,0,0,1-6.34-.27,6.66,6.66,0,0,1-2.43-2.66,8.11,8.11,0,0,1-.9-3.86A7.9,7.9,0,0,1,293.54,401Zm10.21,1.3A4.25,4.25,0,0,0,300,400a4.21,4.21,0,0,0-3.73,2.2,5.08,5.08,0,0,0-.61,2.56,5.29,5.29,0,0,0,.61,2.6,4.37,4.37,0,0,0,1.61,1.71,4.25,4.25,0,0,0,2.12.58,4.18,4.18,0,0,0,3.73-2.25,5.25,5.25,0,0,0,.61-2.59A5.17,5.17,0,0,0,303.75,402.25Z" transform="translate(-9.22 22.44)"/><path class="cls-11" d="M311.41,395.23a1.93,1.93,0,0,1,0-2.7,1.91,1.91,0,0,1,2.68,0,1.9,1.9,0,0,1-2.68,2.7Zm2.81,2.44V412h-3V397.67Z" transform="translate(-9.22 22.44)"/><path class="cls-11" d="M321.08,392.76V412h-3V392.76Z" transform="translate(-9.22 22.44)"/><path class="cls-11" d="M338,405.94H327.06a4,4,0,0,0,1.28,2.76,4,4,0,0,0,2.8,1,3.46,3.46,0,0,0,3.38-2h3.2a6.47,6.47,0,0,1-2.35,3.23,6.91,6.91,0,0,1-4.23,1.26,7.29,7.29,0,0,1-3.68-.92,6.49,6.49,0,0,1-2.54-2.6,7.88,7.88,0,0,1-.93-3.89,8.08,8.08,0,0,1,.9-3.88,6.35,6.35,0,0,1,2.52-2.59,7.5,7.5,0,0,1,3.73-.91,7.3,7.3,0,0,1,3.62.88,6.23,6.23,0,0,1,2.47,2.49,7.45,7.45,0,0,1,.88,3.68A9.17,9.17,0,0,1,338,405.94Zm-3-2.39a3.4,3.4,0,0,0-1.17-2.63,4.24,4.24,0,0,0-2.84-1,3.8,3.8,0,0,0-2.62,1,4.07,4.07,0,0,0-1.3,2.64Z" transform="translate(-9.22 22.44)"/><path class="cls-11" d="M340.93,401a6.67,6.67,0,0,1,8.66-2.9,5.68,5.68,0,0,1,2.17,1.63v-6.92h3V412h-3v-2.16a5.41,5.41,0,0,1-2,1.72,6.26,6.26,0,0,1-2.95.67,6.42,6.42,0,0,1-3.42-.94,6.78,6.78,0,0,1-2.45-2.66,8.11,8.11,0,0,1-.89-3.86A7.89,7.89,0,0,1,340.93,401Zm10.22,1.3a4.27,4.27,0,0,0-1.6-1.66,4.21,4.21,0,0,0-2.13-.58,4.21,4.21,0,0,0-3.73,2.2,5.08,5.08,0,0,0-.61,2.56,5.29,5.29,0,0,0,.61,2.6,4.3,4.3,0,0,0,1.61,1.71,4.19,4.19,0,0,0,5.85-1.67,5.25,5.25,0,0,0,.61-2.59A5.17,5.17,0,0,0,351.15,402.25Z" transform="translate(-9.22 22.44)"/><path class="cls-12" d="M376.05,393.93v2.42h-7.67v5.33h6v2.42h-6V412h-3V393.93Z" transform="translate(-9.22 22.44)"/><path class="cls-12" d="M381.77,392.76V412h-3V392.76Z" transform="translate(-9.22 22.44)"/><path class="cls-12" d="M398.56,397.67l-8.79,21.06h-3.06l2.91-7L384,397.67h3.3l4,10.92,4.18-10.92Z" transform="translate(-9.22 22.44)"/><path class="cls-12" d="M410.2,410.62a24.48,24.48,0,0,1,.1-16.43,16,16,0,0,1,4.33-6.47h3.07V388a17.46,17.46,0,0,0-4.5,6.61,21.41,21.41,0,0,0-1.51,7.93,21,21,0,0,0,1.41,7.59,18.61,18.61,0,0,0,4.08,6.42v.29h-3.07A15.94,15.94,0,0,1,410.2,410.62Z" transform="translate(-9.22 22.44)"/><path class="cls-12" d="M431.24,408.31h-7.56l-1.3,3.69h-3.1l6.48-18.1h3.43l6.47,18.1h-3.12Zm-.83-2.42-2.94-8.4-3,8.4Z" transform="translate(-9.22 22.44)"/><path class="cls-12" d="M437.74,416.84v-.29a18.78,18.78,0,0,0,4.09-6.42,21.43,21.43,0,0,0-.11-15.52,17.46,17.46,0,0,0-4.5-6.61v-.28h3.07a16,16,0,0,1,4.33,6.47,24.48,24.48,0,0,1,.1,16.43,15.94,15.94,0,0,1-3.91,6.22Z" transform="translate(-9.22 22.44)"/><path class="cls-11" d="M465.33,387.72v2.44H462.7v24.21h2.63v2.47h-5.41V387.72Z" transform="translate(-9.22 22.44)"/><path class="cls-11" d="M476.77,404.75,481.4,412H478L475,407.14,472,412h-3.1l4.63-7.05-4.63-7.28h3.36l3.09,4.87,2.91-4.87h3.1Z" transform="translate(-9.22 22.44)"/><path class="cls-12" d="M482.85,408.05v-2.24l8.74-12.53h3.59v12.19h2.41v2.58h-2.41V412h-2.92v-3.95Zm9.54-11.75-6.13,9.17h6.13Z" transform="translate(-9.22 22.44)"/><path class="cls-12" d="M501.68,408q2.49-2.16,3.93-3.55a15.59,15.59,0,0,0,2.41-2.9,5.56,5.56,0,0,0,1-3,3.73,3.73,0,0,0-.74-2.45,2.86,2.86,0,0,0-2.33-.88,3,3,0,0,0-2.38,1,4.05,4.05,0,0,0-.89,2.62h-2.86a6.36,6.36,0,0,1,10.54-4.55,5.52,5.52,0,0,1,1.6,4.16A7.46,7.46,0,0,1,511,402a14.63,14.63,0,0,1-2.26,3.09q-1.32,1.37-3.34,3.16l-1.17,1h8.24v2.47H499.8v-2.16Z" transform="translate(-9.22 22.44)"/><path class="cls-12" d="M516.56,395.24q1.52-2.53,5.24-2.53c2.48,0,4.22.84,5.24,2.53a13.76,13.76,0,0,1,1.52,7,14,14,0,0,1-1.52,7.11c-1,1.7-2.76,2.56-5.24,2.56s-4.23-.86-5.24-2.56a14,14,0,0,1-1.52-7.11A13.76,13.76,0,0,1,516.56,395.24Zm8.81,3.47a4.83,4.83,0,0,0-1.1-2.38,3.78,3.78,0,0,0-4.94,0,4.84,4.84,0,0,0-1.11,2.38,20,20,0,0,0-.27,3.57,22.05,22.05,0,0,0,.26,3.66,4.48,4.48,0,0,0,1.11,2.39,3.83,3.83,0,0,0,5,0,4.55,4.55,0,0,0,1.11-2.39,22.05,22.05,0,0,0,.26-3.66A19.06,19.06,0,0,0,525.37,398.71Z" transform="translate(-9.22 22.44)"/><path class="cls-11" d="M538.88,416.84h-5.41v-2.47h2.63V390.16h-2.63v-2.44h5.41Z" transform="translate(-9.22 22.44)"/><rect class="cls-13" x="189.78" y="465.44" width="438" height="48" rx="7.72"/><path class="cls-10" d="M223.06,468.85l6.61,7.15h-4l-5.3-6.16V476h-3V456.76h3v11.18l5.2-6.27h4.11Z" transform="translate(-9.22 22.44)"/><path class="cls-10" d="M231.71,465a6.51,6.51,0,0,1,5.86-3.51,6.26,6.26,0,0,1,3,.66,6.17,6.17,0,0,1,2,1.65v-2.08h3V476h-3v-2.13a6,6,0,0,1-2.06,1.69,6.69,6.69,0,0,1-6.34-.27,6.66,6.66,0,0,1-2.43-2.66,8.11,8.11,0,0,1-.9-3.86A7.9,7.9,0,0,1,231.71,465Zm10.21,1.3a4.22,4.22,0,0,0-3.73-2.24,4.21,4.21,0,0,0-3.73,2.2,5.18,5.18,0,0,0-.61,2.56,5.4,5.4,0,0,0,.61,2.6,4.37,4.37,0,0,0,1.61,1.71,4.25,4.25,0,0,0,2.12.58,4.15,4.15,0,0,0,3.73-2.25,5.25,5.25,0,0,0,.62-2.59A5.17,5.17,0,0,0,241.92,466.25Z" transform="translate(-9.22 22.44)"/><path class="cls-10" d="M251.6,475.62a5.22,5.22,0,0,1-2.12-1.66,4.11,4.11,0,0,1-.83-2.35h3.06a2.16,2.16,0,0,0,.87,1.52,3.17,3.17,0,0,0,2,.61,3.35,3.35,0,0,0,1.94-.48,1.45,1.45,0,0,0,.69-1.24,1.26,1.26,0,0,0-.77-1.19A14.09,14.09,0,0,0,254,470a23.72,23.72,0,0,1-2.62-.86,4.6,4.6,0,0,1-1.76-1.27,3.39,3.39,0,0,1-.74-2.27,3.46,3.46,0,0,1,.68-2.09,4.46,4.46,0,0,1,1.93-1.49,7.14,7.14,0,0,1,2.9-.55,6,6,0,0,1,3.94,1.23,4.45,4.45,0,0,1,1.6,3.37h-3a2.16,2.16,0,0,0-.78-1.53,3,3,0,0,0-1.9-.57,3.07,3.07,0,0,0-1.8.44,1.37,1.37,0,0,0-.62,1.17,1.26,1.26,0,0,0,.42,1,2.9,2.9,0,0,0,1,.61c.4.15,1,.34,1.77.56a19.08,19.08,0,0,1,2.56.85,4.66,4.66,0,0,1,1.73,1.26,3.37,3.37,0,0,1,.75,2.21,3.7,3.7,0,0,1-.67,2.18,4.59,4.59,0,0,1-1.92,1.51,7.91,7.91,0,0,1-5.92-.07Z" transform="translate(-9.22 22.44)"/><path class="cls-10" d="M265.48,475.62a5.29,5.29,0,0,1-2.12-1.66,4.11,4.11,0,0,1-.83-2.35h3.07a2.09,2.09,0,0,0,.87,1.52,3.15,3.15,0,0,0,2,.61,3.34,3.34,0,0,0,1.93-.48,1.45,1.45,0,0,0,.69-1.24,1.25,1.25,0,0,0-.76-1.19,14.75,14.75,0,0,0-2.43-.86,24,24,0,0,1-2.63-.86,4.67,4.67,0,0,1-1.76-1.27,3.39,3.39,0,0,1-.74-2.27,3.53,3.53,0,0,1,.68-2.09,4.49,4.49,0,0,1,1.94-1.49,7.11,7.11,0,0,1,2.9-.55,6,6,0,0,1,3.93,1.23,4.45,4.45,0,0,1,1.6,3.37h-3a2.09,2.09,0,0,0-.78-1.53,2.93,2.93,0,0,0-1.9-.57,3,3,0,0,0-1.79.44,1.35,1.35,0,0,0-.63,1.17,1.26,1.26,0,0,0,.42,1,3,3,0,0,0,1,.61c.4.15,1,.34,1.77.56a19.08,19.08,0,0,1,2.56.85,4.58,4.58,0,0,1,1.73,1.26A3.32,3.32,0,0,1,274,472a3.71,3.71,0,0,1-.68,2.18,4.55,4.55,0,0,1-1.91,1.51,7.94,7.94,0,0,1-5.93-.07Z" transform="translate(-9.22 22.44)"/><path class="cls-10" d="M277.1,465a6.54,6.54,0,0,1,5.89-3.51,6.26,6.26,0,0,1,2.95.68,5.66,5.66,0,0,1,2,1.63v-2.08h3v21.14h-3v-8.89a5.57,5.57,0,0,1-2,1.64,6.54,6.54,0,0,1-3,.67,6.25,6.25,0,0,1-3.37-.94,6.86,6.86,0,0,1-2.42-2.66,8.11,8.11,0,0,1-.89-3.86A7.89,7.89,0,0,1,277.1,465Zm10.22,1.3a4.27,4.27,0,0,0-1.6-1.66,4.21,4.21,0,0,0-2.13-.58,4.21,4.21,0,0,0-3.73,2.2,5.08,5.08,0,0,0-.61,2.56,5.29,5.29,0,0,0,.61,2.6,4.3,4.3,0,0,0,1.61,1.71,4.19,4.19,0,0,0,5.85-1.67,5.25,5.25,0,0,0,.61-2.59A5.17,5.17,0,0,0,287.32,466.25Z" transform="translate(-9.22 22.44)"/><path class="cls-10" d="M320.82,461.67,316.38,476h-3.13l-2.88-10.58L307.48,476h-3.12l-4.47-14.33h3l3,11.52,3-11.52H312L315,473.14l3-11.47Z" transform="translate(-9.22 22.44)"/><path class="cls-10" d="M322.94,465a6.51,6.51,0,0,1,5.86-3.51,6.26,6.26,0,0,1,2.95.66,6.07,6.07,0,0,1,2,1.65v-2.08h3V476h-3v-2.13a5.91,5.91,0,0,1-2.06,1.69,6.69,6.69,0,0,1-6.34-.27,6.8,6.8,0,0,1-2.43-2.66,8.11,8.11,0,0,1-.9-3.86A7.9,7.9,0,0,1,322.94,465Zm10.22,1.3a4.27,4.27,0,0,0-1.6-1.66,4.21,4.21,0,0,0-2.13-.58,4.3,4.3,0,0,0-2.14.56,4.26,4.26,0,0,0-1.59,1.64,5.08,5.08,0,0,0-.62,2.56,5.29,5.29,0,0,0,.62,2.6,4.2,4.2,0,0,0,7.46,0,5.25,5.25,0,0,0,.61-2.59A5.17,5.17,0,0,0,333.16,466.25Z" transform="translate(-9.22 22.44)"/><path class="cls-10" d="M342.83,475.62a5.29,5.29,0,0,1-2.12-1.66,4.11,4.11,0,0,1-.83-2.35H343a2.09,2.09,0,0,0,.87,1.52,3.15,3.15,0,0,0,2,.61,3.34,3.34,0,0,0,1.93-.48,1.45,1.45,0,0,0,.69-1.24,1.25,1.25,0,0,0-.76-1.19,14.75,14.75,0,0,0-2.43-.86,24,24,0,0,1-2.63-.86,4.67,4.67,0,0,1-1.76-1.27,3.39,3.39,0,0,1-.74-2.27,3.53,3.53,0,0,1,.68-2.09,4.43,4.43,0,0,1,1.94-1.49,7.1,7.1,0,0,1,2.89-.55,6,6,0,0,1,3.94,1.23,4.45,4.45,0,0,1,1.6,3.37h-3a2.09,2.09,0,0,0-.78-1.53,2.93,2.93,0,0,0-1.9-.57,3,3,0,0,0-1.79.44,1.35,1.35,0,0,0-.63,1.17,1.26,1.26,0,0,0,.42,1,3,3,0,0,0,1,.61c.4.15,1,.34,1.77.56a19.08,19.08,0,0,1,2.56.85,4.58,4.58,0,0,1,1.73,1.26,3.26,3.26,0,0,1,.75,2.21,3.7,3.7,0,0,1-.67,2.18,4.55,4.55,0,0,1-1.91,1.51,7.94,7.94,0,0,1-5.93-.07Z" transform="translate(-9.22 22.44)"/><path class="cls-10" d="M366.33,462.1a6.44,6.44,0,0,1,2.93-.66,6.57,6.57,0,0,1,3.43.91,6.45,6.45,0,0,1,2.42,2.59,8,8,0,0,1,.88,3.83,8.22,8.22,0,0,1-.88,3.86,6.66,6.66,0,0,1-2.43,2.66,6.84,6.84,0,0,1-6.37.29,5.55,5.55,0,0,1-2-1.66V476h-3V456.76h3v7.05A5.55,5.55,0,0,1,366.33,462.1Zm6,4.11a4.26,4.26,0,0,0-1.62-1.64,4.33,4.33,0,0,0-2.14-.56,4.23,4.23,0,0,0-2.12.58,4.15,4.15,0,0,0-1.61,1.66,5.17,5.17,0,0,0-.61,2.57,5.25,5.25,0,0,0,.61,2.59,4.15,4.15,0,0,0,1.61,1.68,4.23,4.23,0,0,0,4.26,0,4.32,4.32,0,0,0,1.62-1.71,5.4,5.4,0,0,0,.61-2.6A5.18,5.18,0,0,0,372.37,466.21Z" transform="translate(-9.22 22.44)"/><path class="cls-10" d="M378.84,465a6.51,6.51,0,0,1,5.86-3.51,6.26,6.26,0,0,1,2.95.66,6.07,6.07,0,0,1,2,1.65v-2.08h3V476h-3v-2.13a5.91,5.91,0,0,1-2.06,1.69,6.69,6.69,0,0,1-6.34-.27,6.8,6.8,0,0,1-2.43-2.66,8.11,8.11,0,0,1-.9-3.86A7.9,7.9,0,0,1,378.84,465Zm10.22,1.3a4.27,4.27,0,0,0-1.6-1.66,4.21,4.21,0,0,0-2.13-.58,4.3,4.3,0,0,0-2.14.56,4.26,4.26,0,0,0-1.59,1.64,5.08,5.08,0,0,0-.62,2.56,5.29,5.29,0,0,0,.62,2.6,4.2,4.2,0,0,0,7.46,0,5.36,5.36,0,0,0,.61-2.59A5.28,5.28,0,0,0,389.06,466.25Z" transform="translate(-9.22 22.44)"/><path class="cls-10" d="M406.82,462.14a5,5,0,0,1,2.09,2.08,6.88,6.88,0,0,1,.75,3.33V476h-2.94v-8a4.17,4.17,0,0,0-1-2.95,3.43,3.43,0,0,0-2.62-1,3.49,3.49,0,0,0-2.64,1,4.14,4.14,0,0,0-1,2.95v8h-3V461.67h3v1.64a5,5,0,0,1,1.86-1.38,6,6,0,0,1,2.41-.49A6.44,6.44,0,0,1,406.82,462.14Z" transform="translate(-9.22 22.44)"/><path class="cls-10" d="M423.69,462.14a5,5,0,0,1,2.09,2.08,6.77,6.77,0,0,1,.76,3.33V476H423.6v-8a4.17,4.17,0,0,0-1-2.95,3.45,3.45,0,0,0-2.63-1,3.49,3.49,0,0,0-2.64,1,4.13,4.13,0,0,0-1,2.95v8h-3V461.67h3v1.64a4.83,4.83,0,0,1,1.86-1.38,5.89,5.89,0,0,1,2.4-.49A6.39,6.39,0,0,1,423.69,462.14Z" transform="translate(-9.22 22.44)"/><path class="cls-10" d="M443.33,469.94H432.39a4,4,0,0,0,1.27,2.76,4,4,0,0,0,2.81,1,3.48,3.48,0,0,0,3.38-2h3.2a6.49,6.49,0,0,1-2.36,3.23,6.88,6.88,0,0,1-4.22,1.26,7.26,7.26,0,0,1-3.68-.92,6.58,6.58,0,0,1-2.55-2.6,8.75,8.75,0,0,1,0-7.77,6.23,6.23,0,0,1,2.52-2.59,7.44,7.44,0,0,1,3.73-.91,7.26,7.26,0,0,1,3.61.88,6.23,6.23,0,0,1,2.47,2.49,7.45,7.45,0,0,1,.89,3.68A9.1,9.1,0,0,1,443.33,469.94Zm-3-2.39a3.37,3.37,0,0,0-1.17-2.63,4.22,4.22,0,0,0-2.83-1,3.82,3.82,0,0,0-2.63,1,4.07,4.07,0,0,0-1.3,2.64Z" transform="translate(-9.22 22.44)"/><path class="cls-10" d="M446.26,465a6.51,6.51,0,0,1,5.89-3.51,6.7,6.7,0,0,1,2.77.61,5.68,5.68,0,0,1,2.17,1.63v-6.92h3V476h-3v-2.16a5.53,5.53,0,0,1-2,1.72,6.26,6.26,0,0,1-2.95.67,6.42,6.42,0,0,1-3.42-.94,6.75,6.75,0,0,1-2.44-2.66,8.11,8.11,0,0,1-.9-3.86A7.9,7.9,0,0,1,446.26,465Zm10.22,1.3a4.27,4.27,0,0,0-1.6-1.66,4.22,4.22,0,0,0-2.14-.58,4.21,4.21,0,0,0-3.73,2.2,5.18,5.18,0,0,0-.61,2.56,5.4,5.4,0,0,0,.61,2.6,4.37,4.37,0,0,0,1.61,1.71,4.25,4.25,0,0,0,2.12.58,4.21,4.21,0,0,0,2.14-.57,4.26,4.26,0,0,0,1.6-1.68,5.36,5.36,0,0,0,.61-2.59A5.28,5.28,0,0,0,456.48,466.25Z" transform="translate(-9.22 22.44)"/><path class="cls-10" d="M475.77,462.1a6.4,6.4,0,0,1,2.92-.66,6.54,6.54,0,0,1,3.43.91,6.38,6.38,0,0,1,2.42,2.59,8,8,0,0,1,.89,3.83,8.23,8.23,0,0,1-.89,3.86,6.66,6.66,0,0,1-2.43,2.66,6.84,6.84,0,0,1-6.37.29,5.55,5.55,0,0,1-2-1.66V476h-3V456.76h3v7.05A5.51,5.51,0,0,1,475.77,462.1Zm6,4.11a4.3,4.3,0,0,0-1.61-1.64A4.39,4.39,0,0,0,478,464a4.28,4.28,0,0,0-3.73,2.24,5.17,5.17,0,0,0-.61,2.57,5.25,5.25,0,0,0,.61,2.59,4.23,4.23,0,0,0,5.88,1.67,4.37,4.37,0,0,0,1.61-1.71,5.29,5.29,0,0,0,.61-2.6A5.08,5.08,0,0,0,481.8,466.21Z" transform="translate(-9.22 22.44)"/><path class="cls-10" d="M501.26,461.67l-8.79,21.06H489.4l2.92-7-5.65-14.1H490l4,10.92,4.18-10.92Z" transform="translate(-9.22 22.44)"/><path class="cls-14" d="M520.21,476l-7-8.09V476h-3V457.93h3v8.24l7-8.24H524L516.11,467l8,9Z" transform="translate(-9.22 22.44)"/><path class="cls-14" d="M526.62,465a6.54,6.54,0,0,1,5.87-3.51,6.29,6.29,0,0,1,3,.66,6,6,0,0,1,2,1.65v-2.08h3V476h-3v-2.13a6,6,0,0,1-2.05,1.69,6.71,6.71,0,0,1-6.35-.27,6.8,6.8,0,0,1-2.43-2.66,8.11,8.11,0,0,1-.89-3.86A7.89,7.89,0,0,1,526.62,465Zm10.22,1.3a4.27,4.27,0,0,0-1.6-1.66,4.21,4.21,0,0,0-2.13-.58,4.21,4.21,0,0,0-3.73,2.2,5.08,5.08,0,0,0-.61,2.56,5.29,5.29,0,0,0,.61,2.6,4.3,4.3,0,0,0,1.61,1.71,4.19,4.19,0,0,0,5.85-1.67,5.25,5.25,0,0,0,.61-2.59A5.17,5.17,0,0,0,536.84,466.25Z" transform="translate(-9.22 22.44)"/><path class="cls-14" d="M549,462.05a5.12,5.12,0,0,1,2.57-.61v3.07h-.76a3.61,3.61,0,0,0-2.64.88,4.22,4.22,0,0,0-.89,3.07V476h-3V461.67h3v2.08A4.75,4.75,0,0,1,549,462.05Z" transform="translate(-9.22 22.44)"/><path class="cls-14" d="M564.66,462.14a5,5,0,0,1,2,2.08,7,7,0,0,1,.74,3.33V476h-2.94v-8a4.17,4.17,0,0,0-1-2.95,3.45,3.45,0,0,0-2.63-1,3.49,3.49,0,0,0-2.64,1,4.13,4.13,0,0,0-1,2.95v8h-3V456.76h3v6.58a4.94,4.94,0,0,1,1.91-1.41,6.39,6.39,0,0,1,2.54-.49A6,6,0,0,1,564.66,462.14Z" transform="translate(-9.22 22.44)"/><path class="cls-14" d="M584.17,461.67V476h-3v-1.69a4.84,4.84,0,0,1-1.83,1.39,5.82,5.82,0,0,1-2.41.51,6.51,6.51,0,0,1-3-.7,5.13,5.13,0,0,1-2.1-2.08,6.67,6.67,0,0,1-.77-3.33v-8.43H574v8a4.17,4.17,0,0,0,1,2.95,3.43,3.43,0,0,0,2.62,1,3.48,3.48,0,0,0,2.64-1,4.14,4.14,0,0,0,1-2.95v-8Z" transform="translate(-9.22 22.44)"/><path class="cls-14" d="M599,472.31H591.4L590.1,476H587l6.47-18.1h3.43l6.48,18.1h-3.12Zm-.84-2.42-2.93-8.4-3,8.4Z" transform="translate(-9.22 22.44)"/><path class="cls-14" d="M606.44,462.17a8.77,8.77,0,0,1,3.36-3.29,9.34,9.34,0,0,1,4.64-1.18,9.46,9.46,0,0,1,5.13,1.41,8.07,8.07,0,0,1,3.26,4h-3.56a4.76,4.76,0,0,0-1.95-2.13,5.74,5.74,0,0,0-2.88-.7,6.26,6.26,0,0,0-3.2.8,5.6,5.6,0,0,0-2.2,2.32,8.19,8.19,0,0,0,0,7,5.66,5.66,0,0,0,2.2,2.32,6.17,6.17,0,0,0,3.2.82,5.74,5.74,0,0,0,2.88-.7,4.76,4.76,0,0,0,1.95-2.13h3.56a7.94,7.94,0,0,1-3.26,4,9.88,9.88,0,0,1-9.79.22,8.86,8.86,0,0,1-3.34-3.29,9.81,9.81,0,0,1,0-9.51Z" transform="translate(-9.22 22.44)"/><rect class="cls-15" x="189.78" y="593.44" width="424" height="48" rx="7.72"/><path class="cls-10" d="M220.36,601.61h6.11V604h-9.08V585.93h3Z" transform="translate(-9.22 22.44)"/><path class="cls-10" d="M231.9,585.93V604h-3V585.93Z" transform="translate(-9.22 22.44)"/><path class="cls-10" d="M259.33,585.93,254,604h-3.36l-3.79-13.68-4,13.68-3.33,0-5.12-18.1h3.14l3.75,14.72,4-14.72h3.33l3.77,14.64,3.77-14.64Z" transform="translate(-9.22 22.44)"/><path class="cls-10" d="M271.73,604l-7-8.09V604h-3V585.93h3v8.24l7-8.24h3.72L267.63,595l8,9Z" transform="translate(-9.22 22.44)"/><path class="cls-10" d="M304.23,589.67,299.79,604h-3.12l-2.89-10.58L290.9,604h-3.12l-4.48-14.33h3l3,11.52,3-11.52h3.1l2.91,11.47,3-11.47Z" transform="translate(-9.22 22.44)"/><path class="cls-10" d="M306.35,593a6.54,6.54,0,0,1,5.87-3.51,6.29,6.29,0,0,1,2.95.66,6,6,0,0,1,2,1.65v-2.08h3V604h-3v-2.13a5.87,5.87,0,0,1-2.05,1.69,6.71,6.71,0,0,1-6.35-.27,6.8,6.8,0,0,1-2.43-2.66,8.11,8.11,0,0,1-.89-3.86A7.89,7.89,0,0,1,306.35,593Zm10.22,1.3a4.27,4.27,0,0,0-1.6-1.66,4.21,4.21,0,0,0-2.13-.58,4.21,4.21,0,0,0-3.73,2.2,5.08,5.08,0,0,0-.61,2.56,5.29,5.29,0,0,0,.61,2.6,4.3,4.3,0,0,0,1.61,1.71,4.19,4.19,0,0,0,5.85-1.67,5.25,5.25,0,0,0,.61-2.59A5.17,5.17,0,0,0,316.57,594.25Z" transform="translate(-9.22 22.44)"/><path class="cls-10" d="M326.24,603.62a5.29,5.29,0,0,1-2.12-1.66,4.19,4.19,0,0,1-.83-2.35h3.07a2.09,2.09,0,0,0,.87,1.52,3.15,3.15,0,0,0,2,.61,3.37,3.37,0,0,0,1.94-.48,1.45,1.45,0,0,0,.69-1.24,1.26,1.26,0,0,0-.77-1.19,14.09,14.09,0,0,0-2.43-.86,24,24,0,0,1-2.63-.86,4.64,4.64,0,0,1-1.75-1.27,3.34,3.34,0,0,1-.74-2.27,3.52,3.52,0,0,1,.67-2.09,4.49,4.49,0,0,1,1.94-1.49,7.14,7.14,0,0,1,2.9-.55,6,6,0,0,1,3.94,1.23,4.48,4.48,0,0,1,1.6,3.37h-3a2.09,2.09,0,0,0-.78-1.53,2.93,2.93,0,0,0-1.9-.57,3,3,0,0,0-1.79.44,1.34,1.34,0,0,0-.62,1.17,1.25,1.25,0,0,0,.41,1,3,3,0,0,0,1,.61c.39.15,1,.34,1.76.56a19.28,19.28,0,0,1,2.57.85,4.62,4.62,0,0,1,1.72,1.26,3.32,3.32,0,0,1,.76,2.21,3.71,3.71,0,0,1-.68,2.18,4.55,4.55,0,0,1-1.91,1.51,7.94,7.94,0,0,1-5.93-.07Z" transform="translate(-9.22 22.44)"/><path class="cls-10" d="M349.75,590.1a6.4,6.4,0,0,1,2.92-.66,6.54,6.54,0,0,1,3.43.91,6.38,6.38,0,0,1,2.42,2.59,8,8,0,0,1,.89,3.83,8.23,8.23,0,0,1-.89,3.86,6.66,6.66,0,0,1-2.43,2.66,6.84,6.84,0,0,1-6.37.29,5.55,5.55,0,0,1-2-1.66V604h-3V584.76h3v7A5.51,5.51,0,0,1,349.75,590.1Zm6,4.11a4.3,4.3,0,0,0-1.61-1.64A4.39,4.39,0,0,0,352,592a4.28,4.28,0,0,0-3.73,2.24,5.17,5.17,0,0,0-.61,2.57,5.25,5.25,0,0,0,.61,2.59,4.23,4.23,0,0,0,5.88,1.67,4.37,4.37,0,0,0,1.61-1.71,5.29,5.29,0,0,0,.61-2.6A5.08,5.08,0,0,0,355.78,594.21Z" transform="translate(-9.22 22.44)"/><path class="cls-10" d="M362.25,593a6.54,6.54,0,0,1,5.87-3.51,6.29,6.29,0,0,1,2.95.66,6,6,0,0,1,2,1.65v-2.08h3V604h-3v-2.13a6,6,0,0,1-2.05,1.69,6.71,6.71,0,0,1-6.35-.27,6.8,6.8,0,0,1-2.43-2.66,8.11,8.11,0,0,1-.89-3.86A7.89,7.89,0,0,1,362.25,593Zm10.22,1.3a4.27,4.27,0,0,0-1.6-1.66,4.21,4.21,0,0,0-2.13-.58,4.21,4.21,0,0,0-3.73,2.2,5.08,5.08,0,0,0-.61,2.56,5.29,5.29,0,0,0,.61,2.6,4.3,4.3,0,0,0,1.61,1.71,4.19,4.19,0,0,0,5.85-1.67,5.25,5.25,0,0,0,.61-2.59A5.17,5.17,0,0,0,372.47,594.25Z" transform="translate(-9.22 22.44)"/><path class="cls-10" d="M390.23,590.14a5,5,0,0,1,2.09,2.08,6.88,6.88,0,0,1,.76,3.33V604h-2.94v-8a4.17,4.17,0,0,0-1-3,3.89,3.89,0,0,0-5.27,0,4.13,4.13,0,0,0-1,3v8h-3V589.67h3v1.64a4.87,4.87,0,0,1,1.85-1.38,6.14,6.14,0,0,1,2.41-.49A6.39,6.39,0,0,1,390.23,590.14Z" transform="translate(-9.22 22.44)"/><path class="cls-10" d="M407.1,590.14a5,5,0,0,1,2.1,2.08,6.88,6.88,0,0,1,.75,3.33V604H407v-8a4.17,4.17,0,0,0-1-3,3.45,3.45,0,0,0-2.63-1,3.49,3.49,0,0,0-2.64,1,4.13,4.13,0,0,0-1,3v8h-3V589.67h3v1.64a4.83,4.83,0,0,1,1.86-1.38,6.06,6.06,0,0,1,2.4-.49A6.39,6.39,0,0,1,407.1,590.14Z" transform="translate(-9.22 22.44)"/><path class="cls-10" d="M426.75,597.94H415.8a4,4,0,0,0,1.27,2.76,4.05,4.05,0,0,0,2.81,1,3.47,3.47,0,0,0,3.38-2h3.2a6.47,6.47,0,0,1-2.35,3.23,6.94,6.94,0,0,1-4.23,1.26,7.29,7.29,0,0,1-3.68-.92,6.58,6.58,0,0,1-2.55-2.6,8.75,8.75,0,0,1,0-7.77,6.35,6.35,0,0,1,2.52-2.59,7.47,7.47,0,0,1,3.73-.91,7.32,7.32,0,0,1,3.62.88,6.29,6.29,0,0,1,2.47,2.49,7.56,7.56,0,0,1,.88,3.68A10.54,10.54,0,0,1,426.75,597.94Zm-3-2.39a3.4,3.4,0,0,0-1.17-2.63,4.24,4.24,0,0,0-2.84-1,3.78,3.78,0,0,0-2.62,1,4,4,0,0,0-1.3,2.64Z" transform="translate(-9.22 22.44)"/><path class="cls-10" d="M429.67,593a6.67,6.67,0,0,1,8.66-2.9,5.68,5.68,0,0,1,2.17,1.63v-6.92h3V604h-3v-2.16a5.53,5.53,0,0,1-2,1.72,6.23,6.23,0,0,1-3,.67,6.47,6.47,0,0,1-3.42-.94,6.75,6.75,0,0,1-2.44-2.66,8.11,8.11,0,0,1-.9-3.86A7.9,7.9,0,0,1,429.67,593Zm10.22,1.3a4.27,4.27,0,0,0-1.6-1.66,4.23,4.23,0,0,0-5.86,1.62,5.08,5.08,0,0,0-.61,2.56,5.29,5.29,0,0,0,.61,2.6,4.2,4.2,0,0,0,7.46,0,5.25,5.25,0,0,0,.61-2.59A5.17,5.17,0,0,0,439.89,594.25Z" transform="translate(-9.22 22.44)"/><path class="cls-10" d="M459.18,590.1a6.44,6.44,0,0,1,2.93-.66,6.59,6.59,0,0,1,3.43.91,6.45,6.45,0,0,1,2.42,2.59,8.16,8.16,0,0,1,.88,3.83,8.35,8.35,0,0,1-.88,3.86,6.61,6.61,0,0,1-2.44,2.66,6.84,6.84,0,0,1-6.37.29,5.72,5.72,0,0,1-2-1.66V604h-3V584.76h3v7A5.59,5.59,0,0,1,459.18,590.1Zm6,4.11a4.23,4.23,0,0,0-1.61-1.64,4.36,4.36,0,0,0-2.14-.56,4.2,4.2,0,0,0-2.12.58,4.24,4.24,0,0,0-1.62,1.66,5.28,5.28,0,0,0-.61,2.57,5.36,5.36,0,0,0,.61,2.59,4.23,4.23,0,0,0,1.62,1.68,4.19,4.19,0,0,0,2.12.57,4.2,4.2,0,0,0,3.75-2.29,5.29,5.29,0,0,0,.61-2.6A5.08,5.08,0,0,0,465.21,594.21Z" transform="translate(-9.22 22.44)"/><path class="cls-10" d="M484.67,589.67l-8.79,21.06h-3.06l2.91-7-5.64-14.1h3.3l4,10.92,4.19-10.92Z" transform="translate(-9.22 22.44)"/><path class="cls-14" d="M503.63,604l-7-8.09V604h-3V585.93h3v8.24l7-8.24h3.72L499.52,595l8,9Z" transform="translate(-9.22 22.44)"/><path class="cls-14" d="M510,593a6.51,6.51,0,0,1,5.86-3.51,6.26,6.26,0,0,1,3,.66,6.17,6.17,0,0,1,2,1.65v-2.08h3V604h-3v-2.13a6,6,0,0,1-2.06,1.69,6.69,6.69,0,0,1-6.34-.27,6.66,6.66,0,0,1-2.43-2.66,8.11,8.11,0,0,1-.9-3.86A7.9,7.9,0,0,1,510,593Zm10.21,1.3a4.2,4.2,0,0,0-1.6-1.66,4.15,4.15,0,0,0-2.13-.58,4.21,4.21,0,0,0-3.73,2.2,5.08,5.08,0,0,0-.61,2.56,5.29,5.29,0,0,0,.61,2.6,4.37,4.37,0,0,0,1.61,1.71,4.25,4.25,0,0,0,2.12.58,4.15,4.15,0,0,0,2.13-.57,4.19,4.19,0,0,0,1.6-1.68,5.25,5.25,0,0,0,.62-2.59A5.17,5.17,0,0,0,520.25,594.25Z" transform="translate(-9.22 22.44)"/><path class="cls-14" d="M532.45,590.05a5.08,5.08,0,0,1,2.56-.61v3.07h-.76a3.57,3.57,0,0,0-2.63.88,4.22,4.22,0,0,0-.9,3.07V604h-3V589.67h3v2.08A4.7,4.7,0,0,1,532.45,590.05Z" transform="translate(-9.22 22.44)"/><path class="cls-14" d="M548.07,590.14a5,5,0,0,1,2,2.08,7,7,0,0,1,.74,3.33V604H547.9v-8a4.17,4.17,0,0,0-1-3,3.44,3.44,0,0,0-2.62-1,3.49,3.49,0,0,0-2.64,1,4.14,4.14,0,0,0-1,3v8h-3V584.76h3v6.58a5,5,0,0,1,1.91-1.41,6.57,6.57,0,0,1,2.54-.49A6,6,0,0,1,548.07,590.14Z" transform="translate(-9.22 22.44)"/><path class="cls-14" d="M567.59,589.67V604h-3v-1.69a4.84,4.84,0,0,1-1.83,1.39,5.79,5.79,0,0,1-2.41.51,6.49,6.49,0,0,1-3-.7,5.09,5.09,0,0,1-2.11-2.08,6.77,6.77,0,0,1-.77-3.33v-8.43h2.94v8a4.17,4.17,0,0,0,1,3,3.44,3.44,0,0,0,2.63,1,3.48,3.48,0,0,0,2.64-1,4.13,4.13,0,0,0,1-3v-8Z" transform="translate(-9.22 22.44)"/><path class="cls-14" d="M582.38,600.31h-7.57l-1.3,3.69h-3.09l6.47-18.1h3.44L586.8,604h-3.12Zm-.83-2.42-2.94-8.4-3,8.4Z" transform="translate(-9.22 22.44)"/><path class="cls-14" d="M589.86,590.17a8.75,8.75,0,0,1,3.35-3.29,9.34,9.34,0,0,1,4.64-1.18,9.49,9.49,0,0,1,5.14,1.41,8.18,8.18,0,0,1,3.26,4h-3.56a4.82,4.82,0,0,0-2-2.13,5.81,5.81,0,0,0-2.89-.7,6.28,6.28,0,0,0-3.2.8,5.58,5.58,0,0,0-2.19,2.32,8.1,8.1,0,0,0,0,7,5.64,5.64,0,0,0,2.19,2.32,6.2,6.2,0,0,0,3.2.82,5.81,5.81,0,0,0,2.89-.7,4.82,4.82,0,0,0,2-2.13h3.56a8,8,0,0,1-3.26,4,9.49,9.49,0,0,1-5.14,1.41A9.3,9.3,0,0,1,593.2,603a8.72,8.72,0,0,1-3.34-3.29,9.74,9.74,0,0,1,0-9.51Z" transform="translate(-9.22 22.44)"/><rect class="cls-9" x="189.78" y="529.44" width="438" height="48" rx="7.72"/><path class="cls-10" d="M232.24,540h-3l-8.92-13.49V540h-3V521.9h3l8.92,13.47V521.9h3Z" transform="translate(-9.22 22.44)"/><path class="cls-10" d="M238.69,539.31a6.65,6.65,0,0,1-2.58-2.6,7.88,7.88,0,0,1-.93-3.89,7.71,7.71,0,0,1,1-3.87,6.64,6.64,0,0,1,2.63-2.6,8,8,0,0,1,7.43,0,6.64,6.64,0,0,1,2.63,2.6,7.71,7.71,0,0,1,1,3.87,7.54,7.54,0,0,1-1,3.88,6.82,6.82,0,0,1-2.69,2.61,7.7,7.7,0,0,1-3.76.92A7.26,7.26,0,0,1,238.69,539.31Zm5.81-2.2a4.1,4.1,0,0,0,1.62-1.63,6,6,0,0,0,0-5.29,4,4,0,0,0-1.59-1.63,4.38,4.38,0,0,0-4.25,0,3.86,3.86,0,0,0-1.54,1.63,5.41,5.41,0,0,0-.58,2.63,5,5,0,0,0,1.19,3.58,3.91,3.91,0,0,0,3,1.26A4.36,4.36,0,0,0,244.5,537.11Z" transform="translate(-9.22 22.44)"/><path class="cls-10" d="M256.19,528.09V536a1.52,1.52,0,0,0,.37,1.16,1.9,1.9,0,0,0,1.29.35h1.82V540h-2.34a4.49,4.49,0,0,1-3.07-.94,3.84,3.84,0,0,1-1.06-3v-7.93h-1.69v-2.42h1.69v-3.56h3v3.56h3.48v2.42Z" transform="translate(-9.22 22.44)"/><path class="cls-10" d="M262.31,528.94a6.39,6.39,0,0,1,2.48-2.59,8,8,0,0,1,7.95.32,6.13,6.13,0,0,1,2.3,3.53h-3.2a3.42,3.42,0,0,0-1.25-1.67,3.67,3.67,0,0,0-2.16-.59,3.61,3.61,0,0,0-2.9,1.28,5.45,5.45,0,0,0-1.08,3.6,5.51,5.51,0,0,0,1.08,3.62,3.6,3.6,0,0,0,2.9,1.3,3.3,3.3,0,0,0,3.41-2.26H275A6.47,6.47,0,0,1,272.7,539a7,7,0,0,1-4.27,1.28,7.06,7.06,0,0,1-3.64-.92,6.41,6.41,0,0,1-2.48-2.6,8.84,8.84,0,0,1,0-7.77Z" transform="translate(-9.22 22.44)"/><path class="cls-10" d="M288.33,526.14a5,5,0,0,1,2,2.08,6.88,6.88,0,0,1,.74,3.33V540h-2.93v-8a4.18,4.18,0,0,0-1-3,3.43,3.43,0,0,0-2.62-1,3.49,3.49,0,0,0-2.64,1,4.14,4.14,0,0,0-1,3v8h-3V520.76h3v6.58a5,5,0,0,1,1.92-1.41,6.52,6.52,0,0,1,2.53-.49A6,6,0,0,1,288.33,526.14Z" transform="translate(-9.22 22.44)"/><path class="cls-11" d="M304.6,542.81a3.89,3.89,0,0,1-1.06,3.05,4.37,4.37,0,0,1-3.05.95H299v-2.49h1a1.86,1.86,0,0,0,1.29-.36,1.5,1.5,0,0,0,.37-1.15V525.67h3Zm-2.81-19.58a1.93,1.93,0,0,1,0-2.7,1.91,1.91,0,0,1,2.68,0,1.9,1.9,0,0,1-2.68,2.7Z" transform="translate(-9.22 22.44)"/><path class="cls-11" d="M311.05,539.31a6.58,6.58,0,0,1-2.58-2.6,7.88,7.88,0,0,1-.93-3.89,7.71,7.71,0,0,1,1-3.87,6.62,6.62,0,0,1,2.62-2.6,8.06,8.06,0,0,1,7.44,0,6.71,6.71,0,0,1,2.63,2.6,7.71,7.71,0,0,1,1,3.87,7.54,7.54,0,0,1-1,3.88,6.88,6.88,0,0,1-2.69,2.61,7.72,7.72,0,0,1-3.76.92A7.26,7.26,0,0,1,311.05,539.31Zm5.81-2.2a4.16,4.16,0,0,0,1.62-1.63,6,6,0,0,0,0-5.29,4,4,0,0,0-1.59-1.63,4.39,4.39,0,0,0-2.13-.55,4.32,4.32,0,0,0-2.12.55,3.88,3.88,0,0,0-1.55,1.63,5.53,5.53,0,0,0-.57,2.63,5.07,5.07,0,0,0,1.18,3.58,3.93,3.93,0,0,0,3,1.26A4.38,4.38,0,0,0,316.86,537.11Z" transform="translate(-9.22 22.44)"/><path class="cls-11" d="M325.24,523.23a1.9,1.9,0,0,1,1.35-3.25,1.79,1.79,0,0,1,1.33.55,1.9,1.9,0,0,1-1.33,3.25A1.87,1.87,0,0,1,325.24,523.23Zm2.81,2.44V540h-3V525.67Z" transform="translate(-9.22 22.44)"/><path class="cls-11" d="M342.21,526.14a5,5,0,0,1,2.09,2.08,6.88,6.88,0,0,1,.75,3.33V540h-2.93v-8a4.18,4.18,0,0,0-1-3,3.43,3.43,0,0,0-2.62-1,3.49,3.49,0,0,0-2.64,1,4.14,4.14,0,0,0-1,3v8h-3V525.67h3v1.64a5,5,0,0,1,1.86-1.38,6.14,6.14,0,0,1,2.41-.49A6.44,6.44,0,0,1,342.21,526.14Z" transform="translate(-9.22 22.44)"/><path class="cls-11" d="M361.85,533.94h-11a4,4,0,0,0,4.09,3.8,3.48,3.48,0,0,0,3.38-2h3.19a6.41,6.41,0,0,1-2.35,3.23,6.88,6.88,0,0,1-4.22,1.26,7.26,7.26,0,0,1-3.68-.92,6.45,6.45,0,0,1-2.55-2.6,7.88,7.88,0,0,1-.92-3.89,8.05,8.05,0,0,1,.89-3.88,6.35,6.35,0,0,1,2.52-2.59,7.51,7.51,0,0,1,3.74-.91,7.28,7.28,0,0,1,3.61.88,6.23,6.23,0,0,1,2.47,2.49,7.45,7.45,0,0,1,.88,3.68A9.17,9.17,0,0,1,361.85,533.94Zm-3-2.39a3.4,3.4,0,0,0-1.17-2.63,4.22,4.22,0,0,0-2.83-1,3.8,3.8,0,0,0-2.63,1,4.07,4.07,0,0,0-1.3,2.64Z" transform="translate(-9.22 22.44)"/><path class="cls-11" d="M364.78,529a6.55,6.55,0,0,1,2.44-2.59,6.76,6.76,0,0,1,6.21-.31,5.6,5.6,0,0,1,2.17,1.63v-6.92h3V540h-3v-2.16a5.41,5.41,0,0,1-2,1.72,6.26,6.26,0,0,1-2.95.67,6.42,6.42,0,0,1-3.42-.94,6.68,6.68,0,0,1-2.44-2.66,8.11,8.11,0,0,1-.9-3.86A7.9,7.9,0,0,1,364.78,529Zm10.21,1.3a4.25,4.25,0,0,0-3.73-2.24,4.21,4.21,0,0,0-3.73,2.2,5.08,5.08,0,0,0-.61,2.56,5.29,5.29,0,0,0,.61,2.6,4.37,4.37,0,0,0,1.61,1.71,4.25,4.25,0,0,0,2.12.58,4.18,4.18,0,0,0,3.73-2.25,5.25,5.25,0,0,0,.61-2.59A5.17,5.17,0,0,0,375,530.25Z" transform="translate(-9.22 22.44)"/><path class="cls-11" d="M402.23,525.67V540h-3v-1.69a4.77,4.77,0,0,1-1.83,1.39,5.74,5.74,0,0,1-2.4.51,6.51,6.51,0,0,1-3-.7,5.09,5.09,0,0,1-2.11-2.08,6.77,6.77,0,0,1-.77-3.33v-8.43h2.94v8a4.17,4.17,0,0,0,1,3,3.91,3.91,0,0,0,5.27,0,4.13,4.13,0,0,0,1-3v-8Z" transform="translate(-9.22 22.44)"/><path class="cls-11" d="M408.3,539.62a5.29,5.29,0,0,1-2.12-1.66,4.11,4.11,0,0,1-.83-2.35h3.07a2.09,2.09,0,0,0,.87,1.52,3.15,3.15,0,0,0,2,.61,3.34,3.34,0,0,0,1.93-.48,1.45,1.45,0,0,0,.69-1.24,1.25,1.25,0,0,0-.77-1.19,14.09,14.09,0,0,0-2.43-.86,23.72,23.72,0,0,1-2.62-.86,4.67,4.67,0,0,1-1.76-1.27,3.39,3.39,0,0,1-.74-2.27,3.53,3.53,0,0,1,.68-2.09,4.46,4.46,0,0,1,1.93-1.49,7.18,7.18,0,0,1,2.9-.55,6,6,0,0,1,3.94,1.23,4.45,4.45,0,0,1,1.6,3.37h-3a2.09,2.09,0,0,0-.78-1.53,2.93,2.93,0,0,0-1.9-.57,3,3,0,0,0-1.79.44,1.35,1.35,0,0,0-.63,1.17,1.26,1.26,0,0,0,.42,1,2.9,2.9,0,0,0,1,.61c.4.15,1,.34,1.77.56a19.08,19.08,0,0,1,2.56.85,4.66,4.66,0,0,1,1.73,1.26,3.31,3.31,0,0,1,.75,2.21,3.7,3.7,0,0,1-.67,2.18,4.55,4.55,0,0,1-1.91,1.51,7.94,7.94,0,0,1-5.93-.07Z" transform="translate(-9.22 22.44)"/><path class="cls-11" d="M420.17,523.23a1.9,1.9,0,0,1,2.68-2.7,1.9,1.9,0,0,1-2.68,2.7Zm2.81,2.44V540h-3V525.67Z" transform="translate(-9.22 22.44)"/><path class="cls-11" d="M437.13,526.14a5,5,0,0,1,2.1,2.08,6.88,6.88,0,0,1,.75,3.33V540H437v-8a4.17,4.17,0,0,0-1-3,3.45,3.45,0,0,0-2.63-1,3.49,3.49,0,0,0-2.64,1,4.18,4.18,0,0,0-1,3v8h-3V525.67h3v1.64a4.9,4.9,0,0,1,1.86-1.38,6.06,6.06,0,0,1,2.4-.49A6.39,6.39,0,0,1,437.13,526.14Z" transform="translate(-9.22 22.44)"/><path class="cls-11" d="M452.47,526.1a5.78,5.78,0,0,1,2,1.65v-2.08h3v14.56a7.39,7.39,0,0,1-.83,3.53,6.06,6.06,0,0,1-2.41,2.43,7.55,7.55,0,0,1-3.76.88,8.13,8.13,0,0,1-4.83-1.36,5.08,5.08,0,0,1-2.19-3.71h2.94a3.22,3.22,0,0,0,1.44,1.81,4.9,4.9,0,0,0,2.64.69,4,4,0,0,0,2.9-1.09,4.27,4.27,0,0,0,1.11-3.18v-2.39a5.93,5.93,0,0,1-2,1.7,6.12,6.12,0,0,1-2.93.69,6.42,6.42,0,0,1-3.42-.94,6.75,6.75,0,0,1-2.44-2.66,8.11,8.11,0,0,1-.9-3.86,7.9,7.9,0,0,1,.9-3.82,6.51,6.51,0,0,1,5.86-3.51A6.35,6.35,0,0,1,452.47,526.1Zm1.41,4.15a4.27,4.27,0,0,0-1.6-1.66,4.21,4.21,0,0,0-2.13-.58,4.3,4.3,0,0,0-2.14.56,4.19,4.19,0,0,0-1.59,1.64,5.08,5.08,0,0,0-.62,2.56,5.29,5.29,0,0,0,.62,2.6,4.2,4.2,0,0,0,7.46,0,5.36,5.36,0,0,0,.61-2.59A5.28,5.28,0,0,0,453.88,530.25Z" transform="translate(-9.22 22.44)"/><path class="cls-12" d="M471.1,537.61h6.11V540h-9.07V521.93h3Z" transform="translate(-9.22 22.44)"/><path class="cls-12" d="M492.66,525.67V540h-3v-1.69a4.84,4.84,0,0,1-1.83,1.39,5.82,5.82,0,0,1-2.41.51,6.57,6.57,0,0,1-3-.7,5.13,5.13,0,0,1-2.1-2.08,6.77,6.77,0,0,1-.77-3.33v-8.43h2.94v8a4.17,4.17,0,0,0,1,3,3.44,3.44,0,0,0,2.63,1,3.48,3.48,0,0,0,2.64-1,4.13,4.13,0,0,0,1-3v-8Z" transform="translate(-9.22 22.44)"/><path class="cls-12" d="M506.81,526.14a5,5,0,0,1,2.1,2.08,6.88,6.88,0,0,1,.75,3.33V540h-2.94v-8a4.17,4.17,0,0,0-1-3,3.45,3.45,0,0,0-2.63-1,3.49,3.49,0,0,0-2.64,1,4.13,4.13,0,0,0-1,3v8h-3V525.67h3v1.64a4.83,4.83,0,0,1,1.86-1.38,6.06,6.06,0,0,1,2.4-.49A6.39,6.39,0,0,1,506.81,526.14Z" transform="translate(-9.22 22.44)"/><path class="cls-12" d="M513.34,529a6.51,6.51,0,0,1,5.86-3.51,6.26,6.26,0,0,1,2.95.66,6.07,6.07,0,0,1,2,1.65v-2.08h3V540h-3v-2.13a5.91,5.91,0,0,1-2.06,1.69,6.69,6.69,0,0,1-6.34-.27,6.8,6.8,0,0,1-2.43-2.66,8.11,8.11,0,0,1-.9-3.86A7.9,7.9,0,0,1,513.34,529Zm10.22,1.3a4.27,4.27,0,0,0-1.6-1.66,4.21,4.21,0,0,0-2.13-.58,4.21,4.21,0,0,0-3.74,2.2,5.18,5.18,0,0,0-.61,2.56,5.4,5.4,0,0,0,.61,2.6,4.32,4.32,0,0,0,1.62,1.71,4.21,4.21,0,0,0,4.25,0,4.26,4.26,0,0,0,1.6-1.68,5.36,5.36,0,0,0,.61-2.59A5.28,5.28,0,0,0,523.56,530.25Z" transform="translate(-9.22 22.44)"/><path class="cls-12" d="M535.75,526.05a5.08,5.08,0,0,1,2.56-.61v3.07h-.75a3.61,3.61,0,0,0-2.64.88,4.22,4.22,0,0,0-.9,3.07V540h-3V525.67h3v2.08A4.7,4.7,0,0,1,535.75,526.05Z" transform="translate(-9.22 22.44)"/><path class="cls-12" d="M547.71,528.94a6.39,6.39,0,0,1,2.48-2.59,8,8,0,0,1,7.95.32,6.13,6.13,0,0,1,2.3,3.53h-3.2a3.42,3.42,0,0,0-1.25-1.67,3.67,3.67,0,0,0-2.16-.59,3.61,3.61,0,0,0-2.9,1.28,5.45,5.45,0,0,0-1.08,3.6,5.51,5.51,0,0,0,1.08,3.62,3.6,3.6,0,0,0,2.9,1.3,3.3,3.3,0,0,0,3.41-2.26h3.2A6.47,6.47,0,0,1,558.1,539a7,7,0,0,1-4.27,1.28,7.06,7.06,0,0,1-3.64-.92,6.41,6.41,0,0,1-2.48-2.6,8.84,8.84,0,0,1,0-7.77Z" transform="translate(-9.22 22.44)"/><path class="cls-12" d="M566.36,520.76V540h-3V520.76Z" transform="translate(-9.22 22.44)"/><path class="cls-12" d="M570.42,523.23a1.93,1.93,0,0,1,0-2.7,1.9,1.9,0,0,1,2.68,2.7,1.91,1.91,0,0,1-2.68,0Zm2.81,2.44V540h-3V525.67Z" transform="translate(-9.22 22.44)"/><path class="cls-12" d="M590.15,533.94H579.21a4,4,0,0,0,1.27,2.76,4.05,4.05,0,0,0,2.81,1,3.48,3.48,0,0,0,3.38-2h3.2a6.47,6.47,0,0,1-2.35,3.23,6.94,6.94,0,0,1-4.23,1.26,7.26,7.26,0,0,1-3.68-.92,6.58,6.58,0,0,1-2.55-2.6,8.75,8.75,0,0,1,0-7.77,6.35,6.35,0,0,1,2.52-2.59,7.47,7.47,0,0,1,3.73-.91,7.26,7.26,0,0,1,3.61.88,6.25,6.25,0,0,1,2.48,2.49,7.56,7.56,0,0,1,.88,3.68A9.1,9.1,0,0,1,590.15,533.94Zm-3-2.39a3.4,3.4,0,0,0-1.17-2.63,4.24,4.24,0,0,0-2.84-1,3.78,3.78,0,0,0-2.62,1,4.08,4.08,0,0,0-1.31,2.64Z" transform="translate(-9.22 22.44)"/><path class="cls-12" d="M603.43,526.14a5,5,0,0,1,2.09,2.08,6.88,6.88,0,0,1,.75,3.33V540h-2.93v-8a4.17,4.17,0,0,0-1-3,3.89,3.89,0,0,0-5.27,0,4.14,4.14,0,0,0-1,3v8h-3V525.67h3v1.64a5,5,0,0,1,1.86-1.38,6.14,6.14,0,0,1,2.41-.49A6.39,6.39,0,0,1,603.43,526.14Z" transform="translate(-9.22 22.44)"/><path class="cls-12" d="M613.5,528.09V536a1.53,1.53,0,0,0,.38,1.16,1.9,1.9,0,0,0,1.29.35H617V540h-2.34a4.48,4.48,0,0,1-3.07-.94,3.84,3.84,0,0,1-1.07-3v-7.93h-1.69v-2.42h1.69v-3.56h3v3.56H617v2.42Z" transform="translate(-9.22 22.44)"/><rect class="cls-9" x="189.78" y="657.44" width="442" height="48" rx="7.72"/><path class="cls-10" d="M232.24,668h-3l-8.92-13.49V668h-3V649.9h3l8.92,13.47V649.9h3Z" transform="translate(-9.22 22.44)"/><path class="cls-10" d="M238.69,667.31a6.65,6.65,0,0,1-2.58-2.6,7.88,7.88,0,0,1-.93-3.89,7.71,7.71,0,0,1,1-3.87,6.64,6.64,0,0,1,2.63-2.6,8,8,0,0,1,7.43,0,6.64,6.64,0,0,1,2.63,2.6,7.71,7.71,0,0,1,1,3.87,7.54,7.54,0,0,1-1,3.88,6.82,6.82,0,0,1-2.69,2.61,7.7,7.7,0,0,1-3.76.92A7.26,7.26,0,0,1,238.69,667.31Zm5.81-2.2a4.1,4.1,0,0,0,1.62-1.63,6,6,0,0,0,0-5.29,4,4,0,0,0-1.59-1.63,4.38,4.38,0,0,0-4.25,0,3.86,3.86,0,0,0-1.54,1.63,5.41,5.41,0,0,0-.58,2.63,5,5,0,0,0,1.19,3.58,3.91,3.91,0,0,0,3,1.26A4.36,4.36,0,0,0,244.5,665.11Z" transform="translate(-9.22 22.44)"/><path class="cls-10" d="M256.19,656.09V664a1.52,1.52,0,0,0,.37,1.16,1.9,1.9,0,0,0,1.29.35h1.82V668h-2.34a4.49,4.49,0,0,1-3.07-.94,3.84,3.84,0,0,1-1.06-3v-7.93h-1.69v-2.42h1.69v-3.56h3v3.56h3.48v2.42Z" transform="translate(-9.22 22.44)"/><path class="cls-10" d="M262.31,656.94a6.39,6.39,0,0,1,2.48-2.59,8,8,0,0,1,7.95.32,6.13,6.13,0,0,1,2.3,3.53h-3.2a3.42,3.42,0,0,0-1.25-1.67,3.67,3.67,0,0,0-2.16-.59,3.61,3.61,0,0,0-2.9,1.28,5.45,5.45,0,0,0-1.08,3.6,5.51,5.51,0,0,0,1.08,3.62,3.6,3.6,0,0,0,2.9,1.3,3.3,3.3,0,0,0,3.41-2.26H275A6.47,6.47,0,0,1,272.7,667a7,7,0,0,1-4.27,1.28,7.06,7.06,0,0,1-3.64-.92,6.41,6.41,0,0,1-2.48-2.6,8.84,8.84,0,0,1,0-7.77Z" transform="translate(-9.22 22.44)"/><path class="cls-10" d="M288.33,654.14a5,5,0,0,1,2,2.08,6.88,6.88,0,0,1,.74,3.33V668h-2.93v-8a4.18,4.18,0,0,0-1-3,3.43,3.43,0,0,0-2.62-1,3.49,3.49,0,0,0-2.64,1,4.14,4.14,0,0,0-1,3v8h-3V648.76h3v6.58a5,5,0,0,1,1.92-1.41,6.52,6.52,0,0,1,2.53-.49A6,6,0,0,1,288.33,654.14Z" transform="translate(-9.22 22.44)"/><path class="cls-11" d="M307.64,656.09H305V668h-3V656.09h-1.69v-2.42H302v-1a4.51,4.51,0,0,1,1.31-3.6,6.2,6.2,0,0,1,4.12-1.13v2.47a2.85,2.85,0,0,0-1.9.5,2.36,2.36,0,0,0-.54,1.76v1h2.65Z" transform="translate(-9.22 22.44)"/><path class="cls-11" d="M310.17,657a6.54,6.54,0,0,1,5.87-3.51,6.29,6.29,0,0,1,2.95.66,6,6,0,0,1,2,1.65v-2.08h3V668h-3v-2.13a5.87,5.87,0,0,1-2.05,1.69,6.36,6.36,0,0,1-3,.67,6.29,6.29,0,0,1-3.38-.94,6.75,6.75,0,0,1-2.44-2.66,8.23,8.23,0,0,1-.89-3.86A8,8,0,0,1,310.17,657Zm10.22,1.3a4.25,4.25,0,0,0-3.73-2.24,4.21,4.21,0,0,0-3.73,2.2,5.08,5.08,0,0,0-.61,2.56,5.29,5.29,0,0,0,.61,2.6,4.37,4.37,0,0,0,1.61,1.71,4.25,4.25,0,0,0,2.12.58,4.18,4.18,0,0,0,3.73-2.25,5.25,5.25,0,0,0,.61-2.59A5.17,5.17,0,0,0,320.39,658.25Z" transform="translate(-9.22 22.44)"/><path class="cls-11" d="M328.05,651.23a1.93,1.93,0,0,1,0-2.7,1.91,1.91,0,0,1,2.68,0,1.9,1.9,0,0,1-2.68,2.7Zm2.81,2.44V668h-3V653.67Z" transform="translate(-9.22 22.44)"/><path class="cls-11" d="M337.72,648.76V668h-3V648.76Z" transform="translate(-9.22 22.44)"/><path class="cls-11" d="M354.65,661.94H343.7a4,4,0,0,0,4.08,3.8,3.47,3.47,0,0,0,3.38-2h3.2A6.47,6.47,0,0,1,352,667a6.94,6.94,0,0,1-4.23,1.26,7.29,7.29,0,0,1-3.68-.92,6.49,6.49,0,0,1-2.54-2.6,7.88,7.88,0,0,1-.93-3.89,8.05,8.05,0,0,1,.9-3.88,6.35,6.35,0,0,1,2.52-2.59,7.5,7.5,0,0,1,3.73-.91,7.3,7.3,0,0,1,3.62.88,6.23,6.23,0,0,1,2.47,2.49,7.45,7.45,0,0,1,.88,3.68A9.17,9.17,0,0,1,354.65,661.94Zm-3-2.39a3.4,3.4,0,0,0-1.17-2.63,4.24,4.24,0,0,0-2.84-1,3.8,3.8,0,0,0-2.62,1,4.07,4.07,0,0,0-1.3,2.64Z" transform="translate(-9.22 22.44)"/><path class="cls-11" d="M357.57,657a6.67,6.67,0,0,1,8.66-2.9,5.68,5.68,0,0,1,2.17,1.63v-6.92h3V668h-3v-2.16a5.41,5.41,0,0,1-2,1.72,6.29,6.29,0,0,1-2.95.67,6.42,6.42,0,0,1-3.42-.94,6.78,6.78,0,0,1-2.45-2.66,8.11,8.11,0,0,1-.89-3.86A7.89,7.89,0,0,1,357.57,657Zm10.22,1.3a4.27,4.27,0,0,0-1.6-1.66,4.21,4.21,0,0,0-2.13-.58,4.21,4.21,0,0,0-3.73,2.2,5.08,5.08,0,0,0-.61,2.56,5.29,5.29,0,0,0,.61,2.6,4.3,4.3,0,0,0,1.61,1.71,4.19,4.19,0,0,0,5.85-1.67,5.25,5.25,0,0,0,.61-2.59A5.17,5.17,0,0,0,367.79,658.25Z" transform="translate(-9.22 22.44)"/><path class="cls-12" d="M393,664.31h-7.57l-1.3,3.69H381l6.47-18.1h3.43l6.48,18.1h-3.12Zm-.84-2.42-2.93-8.4-3,8.4Z" transform="translate(-9.22 22.44)"/><path class="cls-12" d="M413.15,653.67V668h-3v-1.69a4.77,4.77,0,0,1-1.83,1.39,5.78,5.78,0,0,1-2.4.51,6.51,6.51,0,0,1-3-.7,5.09,5.09,0,0,1-2.11-2.08,6.77,6.77,0,0,1-.77-3.33v-8.43H403v8a4.17,4.17,0,0,0,1,3,3.44,3.44,0,0,0,2.63,1,3.48,3.48,0,0,0,2.64-1,4.13,4.13,0,0,0,1-3v-8Z" transform="translate(-9.22 22.44)"/><path class="cls-12" d="M420.51,656.09V664a1.52,1.52,0,0,0,.37,1.16,1.9,1.9,0,0,0,1.29.35H424V668h-2.34a4.48,4.48,0,0,1-3.07-.94,3.84,3.84,0,0,1-1.06-3v-7.93h-1.69v-2.42h1.69v-3.56h3v3.56H424v2.42Z" transform="translate(-9.22 22.44)"/><path class="cls-12" d="M429.27,667.31a6.65,6.65,0,0,1-2.58-2.6,7.88,7.88,0,0,1-.93-3.89,7.71,7.71,0,0,1,1-3.87,6.64,6.64,0,0,1,2.63-2.6,8,8,0,0,1,7.43,0,6.64,6.64,0,0,1,2.63,2.6,7.71,7.71,0,0,1,1,3.87,7.54,7.54,0,0,1-1,3.88,6.82,6.82,0,0,1-2.69,2.61,7.72,7.72,0,0,1-3.76.92A7.26,7.26,0,0,1,429.27,667.31Zm5.81-2.2a4.1,4.1,0,0,0,1.62-1.63,6,6,0,0,0,0-5.29,4,4,0,0,0-1.59-1.63A4.39,4.39,0,0,0,433,656a4.32,4.32,0,0,0-2.12.55,3.86,3.86,0,0,0-1.54,1.63,5.41,5.41,0,0,0-.58,2.63A5,5,0,0,0,430,664.4a3.91,3.91,0,0,0,3,1.26A4.36,4.36,0,0,0,435.08,665.11Z" transform="translate(-9.22 22.44)"/><path class="cls-12" d="M443.22,656.94a6.32,6.32,0,0,1,2.48-2.59,7.95,7.95,0,0,1,7.94.32,6.09,6.09,0,0,1,2.3,3.53h-3.19a3.42,3.42,0,0,0-1.25-1.67,3.67,3.67,0,0,0-2.16-.59,3.61,3.61,0,0,0-2.9,1.28,5.45,5.45,0,0,0-1.08,3.6,5.51,5.51,0,0,0,1.08,3.62,3.6,3.6,0,0,0,2.9,1.3,3.3,3.3,0,0,0,3.41-2.26h3.19A6.36,6.36,0,0,1,453.6,667a6.93,6.93,0,0,1-4.26,1.28,7.06,7.06,0,0,1-3.64-.92,6.35,6.35,0,0,1-2.48-2.6,8.84,8.84,0,0,1,0-7.77Z" transform="translate(-9.22 22.44)"/><path class="cls-12" d="M461.87,648.76V668h-3V648.76Z" transform="translate(-9.22 22.44)"/><path class="cls-12" d="M465.93,651.23a1.9,1.9,0,0,1,2.68-2.7,1.9,1.9,0,0,1-2.68,2.7Zm2.81,2.44V668h-3V653.67Z" transform="translate(-9.22 22.44)"/><path class="cls-12" d="M472.54,656.94a6.41,6.41,0,0,1,2.49-2.59,7.95,7.95,0,0,1,7.94.32,6.09,6.09,0,0,1,2.3,3.53h-3.2a3.4,3.4,0,0,0-1.24-1.67,3.71,3.71,0,0,0-2.16-.59,3.6,3.6,0,0,0-2.9,1.28,5.45,5.45,0,0,0-1.08,3.6,5.51,5.51,0,0,0,1.08,3.62,3.59,3.59,0,0,0,2.9,1.3,3.29,3.29,0,0,0,3.4-2.26h3.2a6.36,6.36,0,0,1-2.34,3.47,6.93,6.93,0,0,1-4.26,1.28,7,7,0,0,1-3.64-.92,6.43,6.43,0,0,1-2.49-2.6,8.92,8.92,0,0,1,0-7.77Z" transform="translate(-9.22 22.44)"/><path class="cls-12" d="M493.9,660.85l6.61,7.15h-4l-5.3-6.16V668h-3V648.76h3v11.18l5.2-6.27h4.11Z" transform="translate(-9.22 22.44)"/><path class="cls-12" d="M515.66,661.94H504.72A4,4,0,0,0,506,664.7a4,4,0,0,0,2.81,1,3.48,3.48,0,0,0,3.38-2h3.2A6.47,6.47,0,0,1,513,667a6.94,6.94,0,0,1-4.23,1.26,7.26,7.26,0,0,1-3.68-.92,6.58,6.58,0,0,1-2.55-2.6,8.75,8.75,0,0,1,0-7.77,6.35,6.35,0,0,1,2.52-2.59,7.47,7.47,0,0,1,3.73-.91,7.26,7.26,0,0,1,3.61.88,6.23,6.23,0,0,1,2.47,2.49,7.45,7.45,0,0,1,.89,3.68A9.1,9.1,0,0,1,515.66,661.94Zm-3-2.39a3.34,3.34,0,0,0-1.17-2.63,4.2,4.2,0,0,0-2.83-1,3.82,3.82,0,0,0-2.63,1,4.12,4.12,0,0,0-1.3,2.64Z" transform="translate(-9.22 22.44)"/><path class="cls-12" d="M523.37,654.05a5.1,5.1,0,0,1,2.56-.61v3.07h-.75a3.61,3.61,0,0,0-2.64.88,4.22,4.22,0,0,0-.9,3.07V668h-3V653.67h3v2.08A4.78,4.78,0,0,1,523.37,654.05Z" transform="translate(-9.22 22.44)"/><path class="cls-12" d="M538.06,666.62a24.56,24.56,0,0,1,.11-16.43,16,16,0,0,1,4.33-6.47h3.06V644a17.55,17.55,0,0,0-4.49,6.61,21.43,21.43,0,0,0-.11,15.52,18.9,18.9,0,0,0,4.08,6.42v.29H542A16,16,0,0,1,538.06,666.62Z" transform="translate(-9.22 22.44)"/><path class="cls-12" d="M559.11,664.31h-7.57l-1.3,3.69h-3.09l6.47-18.1h3.44l6.47,18.1h-3.12Zm-.83-2.42-2.94-8.4-3,8.4Z" transform="translate(-9.22 22.44)"/><path class="cls-12" d="M565.61,672.84v-.29a18.75,18.75,0,0,0,4.08-6.42,21,21,0,0,0,1.41-7.59,21.61,21.61,0,0,0-1.51-7.93,17.69,17.69,0,0,0-4.5-6.61v-.28h3.07a16.06,16.06,0,0,1,4.33,6.47,24.48,24.48,0,0,1,.1,16.43,16,16,0,0,1-3.91,6.22Z" transform="translate(-9.22 22.44)"/><path class="cls-11" d="M593.2,643.72v2.44h-2.63v24.21h2.63v2.47h-5.41V643.72Z" transform="translate(-9.22 22.44)"/><path class="cls-11" d="M604.63,660.75l4.63,7.25h-3.35l-3.1-4.86L599.9,668h-3.09l4.63-7-4.63-7.28h3.35l3.1,4.87,2.91-4.87h3.09Z" transform="translate(-9.22 22.44)"/><path class="cls-12" d="M610.69,651.75v-2.7h5.41v19h-3V651.75Z" transform="translate(-9.22 22.44)"/><path class="cls-11" d="M627.36,672.84H622v-2.47h2.63V646.16H622v-2.44h5.41Z" transform="translate(-9.22 22.44)"/><path class="cls-16" d="M184.78,175.44h558a14,14,0,0,1,14,14v58a0,0,0,0,1,0,0h-586a0,0,0,0,1,0,0v-58A14,14,0,0,1,184.78,175.44Z"/><path class="cls-10" d="M326.13,172.4l-8.43,34.69h-3.48l8.4-34.69Z" transform="translate(-9.22 22.44)"/><path class="cls-10" d="M342.46,201.67,334.13,192v9.64h-3.54V180.12h3.54V190l8.37-9.83h4.43l-9.36,10.79,9.51,10.76Z" transform="translate(-9.22 22.44)"/><path class="cls-10" d="M363.2,197.26h-9l-1.55,4.41h-3.69l7.72-21.58h4.09l7.72,21.58h-3.72Zm-1-2.88-3.5-10-3.54,10Z" transform="translate(-9.22 22.44)"/><path class="cls-10" d="M383,201.67l-5-8.62h-2.69v8.62h-3.54V180.12h7.44a9.25,9.25,0,0,1,4.2.87,6,6,0,0,1,2.57,2.32,6.35,6.35,0,0,1,.86,3.26,6.43,6.43,0,0,1-1.23,3.83,6.21,6.21,0,0,1-3.76,2.34l5.33,8.93Zm-7.65-11.44h3.9a4.1,4.1,0,0,0,3-1,3.6,3.6,0,0,0,1-2.67,3.44,3.44,0,0,0-1-2.62,4.23,4.23,0,0,0-3-.95h-3.9Z" transform="translate(-9.22 22.44)"/><path class="cls-10" d="M408.62,180.12v21.55h-3.54v-9.43H395v9.43h-3.54V180.12H395v9.24h10.13v-9.24Z" transform="translate(-9.22 22.44)"/><path class="cls-10" d="M416.77,180.12v13.73a4.42,4.42,0,0,0,4.87,4.93,5,5,0,0,0,3.61-1.24,4.87,4.87,0,0,0,1.29-3.69V180.12h3.53v13.67a8.21,8.21,0,0,1-1.15,4.47,7,7,0,0,1-3.07,2.72,10.41,10.41,0,0,1-8.47,0,6.87,6.87,0,0,1-3-2.72,8.47,8.47,0,0,1-1.11-4.47V180.12Z" transform="translate(-9.22 22.44)"/><path class="cls-10" d="M453.91,201.67l-5-8.62h-2.7v8.62h-3.53V180.12h7.44a9.25,9.25,0,0,1,4.2.87,6.07,6.07,0,0,1,2.57,2.32,6.34,6.34,0,0,1,.85,3.26,6.49,6.49,0,0,1-1.22,3.83,6.23,6.23,0,0,1-3.77,2.34l5.33,8.93Zm-7.66-11.44h3.91a4.1,4.1,0,0,0,3-1,3.6,3.6,0,0,0,1-2.67,3.41,3.41,0,0,0-1-2.62,4.2,4.2,0,0,0-3-.95h-3.91Z" transform="translate(-9.22 22.44)"/><path class="cls-10" d="M465.84,183v6.33h7.44v2.88h-7.44v6.6h8.37v2.89h-11.9V180.09h11.9V183Z" transform="translate(-9.22 22.44)"/><path class="cls-10" d="M478.85,185.17a10.5,10.5,0,0,1,4-3.92,11.19,11.19,0,0,1,5.54-1.41,11.3,11.3,0,0,1,6.12,1.69,9.62,9.62,0,0,1,3.89,4.79h-4.25a5.69,5.69,0,0,0-2.32-2.54,6.88,6.88,0,0,0-3.44-.84,7.49,7.49,0,0,0-3.81,1,6.65,6.65,0,0,0-2.62,2.76,9.69,9.69,0,0,0,0,8.37,6.77,6.77,0,0,0,2.62,2.78,7.4,7.4,0,0,0,3.81,1,7,7,0,0,0,3.44-.83,5.66,5.66,0,0,0,2.32-2.55h4.25a9.51,9.51,0,0,1-3.89,4.78,11.38,11.38,0,0,1-6.12,1.67,11.12,11.12,0,0,1-5.55-1.41,10.55,10.55,0,0,1-4-3.92,11.62,11.62,0,0,1,0-11.35Z" transform="translate(-9.22 22.44)"/><path class="cls-10" d="M506.05,183v6.33h7.44v2.88h-7.44v6.6h8.37v2.89H502.51V180.09h11.91V183Z" transform="translate(-9.22 22.44)"/><path class="cls-10" d="M536.46,201.67h-3.54l-10.63-16.09v16.09h-3.53V180.09h3.53l10.63,16.06V180.09h3.54Z" transform="translate(-9.22 22.44)"/><path class="cls-10" d="M555,180.12V183h-5.74v18.67h-3.53V183H540v-2.88Z" transform="translate(-9.22 22.44)"/><path class="cls-10" d="M562.13,198.81h7.28v2.86H558.59V180.12h3.54Z" transform="translate(-9.22 22.44)"/><path class="cls-10" d="M576.65,200.47a10.41,10.41,0,0,1-4-3.93,11.73,11.73,0,0,1,0-11.37,10.46,10.46,0,0,1,4-3.92,11.63,11.63,0,0,1,11.1,0,10.41,10.41,0,0,1,4,3.92,11.8,11.8,0,0,1,0,11.37,10.36,10.36,0,0,1-4,3.93,11.63,11.63,0,0,1-11.1,0Zm9.35-2.63a6.86,6.86,0,0,0,2.62-2.79,9.83,9.83,0,0,0,0-8.39A6.78,6.78,0,0,0,586,183.9a8.06,8.06,0,0,0-7.63,0,6.65,6.65,0,0,0-2.62,2.76,9.74,9.74,0,0,0,0,8.39,6.73,6.73,0,0,0,2.62,2.79,8,8,0,0,0,7.63,0Z" transform="translate(-9.22 22.44)"/><path class="cls-10" d="M612.25,186.32a5.74,5.74,0,0,0-2.32-2.43,7,7,0,0,0-3.44-.82,7.55,7.55,0,0,0-3.82,1,6.76,6.76,0,0,0-2.62,2.73,8.51,8.51,0,0,0-.94,4.09,8.65,8.65,0,0,0,.94,4.11,6.79,6.79,0,0,0,2.62,2.74,7.55,7.55,0,0,0,3.82,1,6.77,6.77,0,0,0,4.68-1.61,7,7,0,0,0,2.2-4.37h-8.09v-2.82h11.87v2.75a10.62,10.62,0,0,1-10.66,9.24,11.12,11.12,0,0,1-5.55-1.41,10.5,10.5,0,0,1-4-3.92,11.69,11.69,0,0,1,0-11.35,10.53,10.53,0,0,1,4-3.92,11.19,11.19,0,0,1,5.54-1.41,11.3,11.3,0,0,1,6.12,1.69,9.67,9.67,0,0,1,3.89,4.79Z" transform="translate(-9.22 22.44)"/><path class="cls-10" d="M623.81,201.12a6.37,6.37,0,0,1-2.72-2.15,5.43,5.43,0,0,1-1-3.26h3.79A3.42,3.42,0,0,0,625,198a3.88,3.88,0,0,0,2.74.9,4.21,4.21,0,0,0,2.85-.89,2.85,2.85,0,0,0,1-2.27A2.5,2.5,0,0,0,631,194a4.19,4.19,0,0,0-1.58-1.06,25.81,25.81,0,0,0-2.62-.8,24.56,24.56,0,0,1-3.43-1.13,5.75,5.75,0,0,1-2.24-1.79,5.13,5.13,0,0,1-.93-3.22,5.71,5.71,0,0,1,.93-3.25,5.92,5.92,0,0,1,2.6-2.14,9.42,9.42,0,0,1,3.88-.75,8.07,8.07,0,0,1,5.13,1.57,5.75,5.75,0,0,1,2.21,4.29H631a2.82,2.82,0,0,0-1.12-2,4.11,4.11,0,0,0-2.7-.84,3.87,3.87,0,0,0-2.48.77,2.72,2.72,0,0,0-1,2.24,2.22,2.22,0,0,0,.61,1.62,4.17,4.17,0,0,0,1.53,1,23.68,23.68,0,0,0,2.54.81,25,25,0,0,1,3.49,1.18,5.82,5.82,0,0,1,2.3,1.81,5.23,5.23,0,0,1,.94,3.27,5.85,5.85,0,0,1-.88,3.1A6.39,6.39,0,0,1,631.7,201a8.44,8.44,0,0,1-4,.88A9.61,9.61,0,0,1,623.81,201.12Z" transform="translate(-9.22 22.44)"/><text x="-9.22" y="22.44"/></svg>