<?xml version="1.0" encoding="utf-8"?>
<!-- Generator: Adobe Illustrator 25.2.3, SVG Export Plug-In . SVG Version: 6.00 Build 0)  -->
<svg version="1.1" id="Layer_1" xmlns="http://www.w3.org/2000/svg" xmlns:xlink="http://www.w3.org/1999/xlink" x="0px" y="0px"
	 viewBox="0 0 989.7 735.1" style="enable-background:new 0 0 989.7 735.1;" xml:space="preserve">
<style type="text/css">
	.st0{fill:#1c7ed6;}
	.st1{fill:#1c7ed6;}
</style>
<path class="st0" d="M464.4,689.8c-3.2,9.7-8.4,18.7-15.2,26.3h23c1.1-2.7,2.9-5.1,5.2-7c6.1-4.3,13.7-6.9,21.1-9.1
	c23.9-7.1,23.7-6.9,22.6-32.4c-1-23.2,1.9-45.6,13.3-67.8c38.3,14,76.1,15.2,112.6,0.8c-22.3,36.9-43.8,73.2-65.9,109.1
	c-1.5,2.4-3.3,4.5-5.4,6.4h173.1c1.6-3.9,4.7-5,11.5-6.7c15.7-4.1,17.4-8.2,7.6-20.6c-3.7-4.8-8-9.2-12.7-13
	c-26.2-20.5-44.9-46.7-59.9-75.9c-11.3-21.9-23.8-43.2-36.3-65.7l-14.6,7.3c3,5.8,5.5,10.5,8,15.3c11.3,22,10.9,23-11.6,34.3
	c-58.5,29.2-145.7-2.1-174.8-62.2c-2.7-5.5-8.3-9.6-12.6-14.3l-5.7,4.9c12.6,17.1,25.7,33.9,37.7,51.4c4.1,6.1,9,14.9,7.4,21
	C484.4,624.9,475.3,657.7,464.4,689.8z"/>
<path class="st1" d="M974.6,451.9L974.6,451.9c-4.7-64-22.5-126.4-52.1-183.4l-10-18.3l0,0c-35.7-61.5-84.5-114.3-143-154.7
	l-33.2-21l0,0C531.6-43,272.1,4.1,121.9,186l0,0l-21.7,28.5c-42.5,60.2-70.3,129.6-81.2,202.5l0,0l-1.1,7.6
	c-7.6,57.5-4.7,115.9,8.6,172.4l0,0l4.3,16.8c10.7,38.8,26.4,76.1,46.6,111h223.8c-21.8-24.4-32.1-51.5-17.5-82.9
	c5.9-12.8,12.9-26.5,23-35.7c28.3-25.7,37.2-53.5,13.9-88.1l4.5-3.5c11.5,4.5,27.6,5.8,33.7,14.2c17.2,23.8,30.8,50.4,44.7,76.5
	c2.5,4.7,2.5,14.8-0.7,17.9c-20.3,19.1-40.6,38.7-63.6,54.2c-11.4,7.7-15.2,14.1-13.1,26c0.8,4.3,3,8.8,2.3,12.8
	c-0.5,2.9-1.1,5.8-1.9,8.7h55.5c4.1-1.6,8.5-2.6,12.9-2.9c29.6-3,33.1-6.9,33.1-36.6c-0.1-57.4-17.6-108.7-53.6-154
	c-10-12.5-18.9-23.3-37.5-21.3c-8.9,1-18.5-2.6-27.5-5.3c-28.7-8.7-28.7-8.9-43.3,17.4c-0.4,0.7-1.5,1-2.4,1.6l-6.9-13.3l-26,28.7
	c-1.2-10.1-1.7-15-2.5-21.5c-16.3,5.6-31.2,11-46.2,16c-6.8,2.3-15.1,5.5-17.3-5.1c-1.9-9.7-7.2-13-16.3-15.5
	c-5.3-1.5-11.1-7.9-12.6-13.2c-0.9-3.1,6.1-8.5,9.6-12.9c9.7-12.4,19.4-24.9,29-37.3c7.9-10.2,14.3-22.3,24.1-30.2
	c13.3-10.7,31.6-16.2,29.2-38.4c-0.1-1.1,1.9-2.5,4.4-5.5c13.4,9.6,19.9,5.2,25.5-8.9c6.1-15.2,19.9-16.2,33.1-5.9
	c3.9,3.1,10.3,5.8,14.9,4.9c19.8-4,39.9-7.8,58.8-14.6c18.2-6.5,35.6-12.9,54.5-5.1c22.4,9.3,44.9,9.7,68.2,3.8
	c15-3.9,30.3-6.8,45.7-8.7c59.2-6.6,116.4-3.2,165.1,36.9c61.3,50.5,111.7,107.5,124.5,189.9c4.5,28.5,13.2,56.9,24.4,83.5
	c9.7,23.1,10.3,52.5-2.9,73.8h68.3c41.8-72.1,63.8-154.1,63.7-237.5c0-8.9-0.3-17.8-0.8-26.6L974.6,451.9z"/>
</svg>
