<svg xmlns="http://www.w3.org/2000/svg" width="58.682" height="72" viewBox="0 0 58.682 72"><defs><style>.a{fill:#1f6aac;}</style></defs><g transform="translate(0.022)"><path class="a" d="M53.062,0A43.234,43.234,0,0,0,39.4,21.077c-.229.838-.419,1.664-.584,2.477a22.718,22.718,0,0,0-8.579-2.216c-.311-.013-.616-.025-.914-.025s-.61.013-.914.025a22.718,22.718,0,0,0-8.579,2.216c-.165-.819-.356-1.645-.584-2.477A43.2,43.2,0,0,0,5.58,0C4.088,2.356-1.831,12.288.525,24.741a32,32,0,0,0,5.055,12.1A42.621,42.621,0,0,1,4.329,44.02c-.368,1.4-.787,2.693-1.219,3.861,2.019-.025,3.347.8,3.385,1.537.032.616-.845,1.308-1.969,1.721A70.294,70.294,0,0,1,20.9,62.614,73.235,73.235,0,0,1,29.318,72a72.758,72.758,0,0,1,8.414-9.386A70.294,70.294,0,0,1,54.109,51.139c-1.124-.413-1.994-1.1-1.969-1.721.032-.737,1.365-1.562,3.385-1.537-.432-1.175-.851-2.464-1.219-3.861a43.716,43.716,0,0,1-1.251-7.176,31.759,31.759,0,0,0,5.055-12.1C60.472,12.288,54.554,2.356,53.062,0ZM4.012,18.943A23.522,23.522,0,0,1,6.539,8.668a25.183,25.183,0,0,1,2.654,2.54A24.844,24.844,0,0,1,15.271,23.49a24.055,24.055,0,0,1,.279,5.849l-4.731-4.121a11.8,11.8,0,0,0-.21,4.166,12.1,12.1,0,0,0,2.038,5.271,12.618,12.618,0,0,1-3.416-1.892C3.935,28.6,3.993,21.375,4.012,18.943ZM20.58,47.316a10.352,10.352,0,0,1-4.534-1.061c-3-1.727-3.791-5.684-3.982-6.82.933-.108,7.379-.737,11.285,4a11.594,11.594,0,0,1,1.994,3.645A18.019,18.019,0,0,1,20.58,47.316ZM42.6,46.256a10.441,10.441,0,0,1-4.534,1.061,17.951,17.951,0,0,1-4.756-.235,11.335,11.335,0,0,1,1.994-3.645c3.905-4.737,10.351-4.109,11.285-4C46.394,40.579,45.606,44.528,42.6,46.256ZM49.41,32.749a12.8,12.8,0,0,1-3.416,1.892A11.805,11.805,0,0,0,47.823,25.2l-4.731,4.121a24.075,24.075,0,0,1,.279-5.849A24.79,24.79,0,0,1,49.448,11.2,25.182,25.182,0,0,1,52.1,8.655,23.546,23.546,0,0,1,54.63,18.93C54.655,21.375,54.713,28.6,49.41,32.749Z" transform="translate(0)"/></g></svg>