<svg id="visual" viewBox="0 0 900 900" width="900" height="900" xmlns="http://www.w3.org/2000/svg" xmlns:xlink="http://www.w3.org/1999/xlink" version="1.1"><path d="M0 207L21.5 222.3C43 237.7 86 268.3 128.8 300.3C171.7 332.3 214.3 365.7 257.2 388.7C300 411.7 343 424.3 385.8 413C428.7 401.7 471.3 366.3 514.2 328.2C557 290 600 249 642.8 247.8C685.7 246.7 728.3 285.3 771.2 292.5C814 299.7 857 275.3 878.5 263.2L900 251L900 901L878.5 901C857 901 814 901 771.2 901C728.3 901 685.7 901 642.8 901C600 901 557 901 514.2 901C471.3 901 428.7 901 385.8 901C343 901 300 901 257.2 901C214.3 901 171.7 901 128.8 901C86 901 43 901 21.5 901L0 901Z" fill="#1f6aac"></path><path d="M0 489L21.5 470.5C43 452 86 415 128.8 408C171.7 401 214.3 424 257.2 444.3C300 464.7 343 482.3 385.8 494.8C428.7 507.3 471.3 514.7 514.2 495.3C557 476 600 430 642.8 410.7C685.7 391.3 728.3 398.7 771.2 414.8C814 431 857 456 878.5 468.5L900 481L900 901L878.5 901C857 901 814 901 771.2 901C728.3 901 685.7 901 642.8 901C600 901 557 901 514.2 901C471.3 901 428.7 901 385.8 901C343 901 300 901 257.2 901C214.3 901 171.7 901 128.8 901C86 901 43 901 21.5 901L0 901Z" fill="#1e64a3"></path><path d="M0 440L21.5 444C43 448 86 456 128.8 479.5C171.7 503 214.3 542 257.2 556.5C300 571 343 561 385.8 567.5C428.7 574 471.3 597 514.2 601C557 605 600 590 642.8 558.8C685.7 527.7 728.3 480.3 771.2 479C814 477.7 857 522.3 878.5 544.7L900 567L900 901L878.5 901C857 901 814 901 771.2 901C728.3 901 685.7 901 642.8 901C600 901 557 901 514.2 901C471.3 901 428.7 901 385.8 901C343 901 300 901 257.2 901C214.3 901 171.7 901 128.8 901C86 901 43 901 21.5 901L0 901Z" fill="#1c5f9b"></path><path d="M0 590L21.5 609.7C43 629.3 86 668.7 128.8 674C171.7 679.3 214.3 650.7 257.2 644.7C300 638.7 343 655.3 385.8 663.7C428.7 672 471.3 672 514.2 678.8C557 685.7 600 699.3 642.8 692C685.7 684.7 728.3 656.3 771.2 632C814 607.7 857 587.3 878.5 577.2L900 567L900 901L878.5 901C857 901 814 901 771.2 901C728.3 901 685.7 901 642.8 901C600 901 557 901 514.2 901C471.3 901 428.7 901 385.8 901C343 901 300 901 257.2 901C214.3 901 171.7 901 128.8 901C86 901 43 901 21.5 901L0 901Z" fill="#1b5a92"></path><path d="M0 675L21.5 687.7C43 700.3 86 725.7 128.8 746C171.7 766.3 214.3 781.7 257.2 792C300 802.3 343 807.7 385.8 806.3C428.7 805 471.3 797 514.2 788.7C557 780.3 600 771.7 642.8 753.8C685.7 736 728.3 709 771.2 713.5C814 718 857 754 878.5 772L900 790L900 901L878.5 901C857 901 814 901 771.2 901C728.3 901 685.7 901 642.8 901C600 901 557 901 514.2 901C471.3 901 428.7 901 385.8 901C343 901 300 901 257.2 901C214.3 901 171.7 901 128.8 901C86 901 43 901 21.5 901L0 901Z" fill="#1a558a"></path></svg>